<?xml version="1.0" encoding="UTF-8"?>
<svg version="1.1" xmlns="http://www.w3.org/2000/svg" width="612" height="408">
<path d="M0 0 C2.375 0.6875 2.375 0.6875 3.375 1.6875 C3.375 3.9975 3.375 6.3075 3.375 8.6875 C10.965 8.6875 18.555 8.6875 26.375 8.6875 C26.705 6.3775 27.035 4.0675 27.375 1.6875 C29.1875 0.1875 29.1875 0.1875 31.375 -0.3125 C33.68297001 0.02690736 35.29010461 0.64505231 37.375 1.6875 C37.375 3.9975 37.375 6.3075 37.375 8.6875 C38.46167969 8.63529297 38.46167969 8.63529297 39.5703125 8.58203125 C49.88576272 8.29319864 49.88576272 8.29319864 54.375 11.6875 C59.73915996 18.06650104 59.22672632 25.68583407 59.375 33.6875 C59.39546387 34.51749512 59.41592773 35.34749023 59.43701172 36.20263672 C59.83842729 54.12036804 60.21296743 71.0907241 47.17578125 84.9375 C40.17099823 91.74475117 32.02010988 94.83477598 22.125 94.875 C20.76375 94.7821875 20.76375 94.7821875 19.375 94.6875 C22.32577974 101.48703532 22.32577974 101.48703532 27.375 106.6875 C31.57140155 108.22805277 35.29260464 108.76767743 39.75 108.4375 C43.96194222 105.62953852 44.27141022 101.42995336 45.375 96.6875 C46.375 93.625 46.375 93.625 47.375 91.6875 C48.365 91.3575 49.355 91.0275 50.375 90.6875 C50.375 90.0275 50.375 89.3675 50.375 88.6875 C55.75759748 86.71021929 58.90968237 86.25846994 64.375 88.6875 C67.88715847 91.94620374 70.22470214 95.12440229 70.6875 99.9375 C70.25292077 105.15245082 68.00677212 108.05572788 64.375 111.6875 C62.1328125 112.13671875 62.1328125 112.13671875 59.5 112.375 C58.63632813 112.46136719 57.77265625 112.54773438 56.8828125 112.63671875 C54.48502241 112.68527213 52.65378559 112.39233368 50.375 111.6875 C49.88 113.1725 49.88 113.1725 49.375 114.6875 C42.65844253 119.20825984 36.34107232 119.67330145 28.375 118.6875 C21.07824019 116.50081076 16.4240729 111.67876382 12.5625 105.25 C10.60296805 101.58812466 9.8344831 98.90353183 10.375 94.6875 C9.1375 94.749375 7.9 94.81125 6.625 94.875 C0.18721184 94.89546991 -6.83472707 93.58263646 -12.625 90.6875 C-12.625 90.0275 -12.625 89.3675 -12.625 88.6875 C-13.21152344 88.5946875 -13.79804688 88.501875 -14.40234375 88.40625 C-17.1595922 87.5146266 -18.27224003 86.34698775 -20.1875 84.1875 C-21.05568359 83.24390625 -21.05568359 83.24390625 -21.94140625 82.28125 C-26.72560699 74.9106948 -27.07199741 67.21801362 -27.0234375 58.64453125 C-27.02630768 57.51730148 -27.02917786 56.39007172 -27.03213501 55.22868347 C-27.03416636 52.85956313 -27.02870193 50.49042566 -27.01611328 48.12133789 C-27.00000193 44.50043307 -27.01601768 40.88063678 -27.03515625 37.25976562 C-27.03317454 34.95051838 -27.02933235 32.64127182 -27.0234375 30.33203125 C-27.02951019 29.25379593 -27.03558289 28.17556061 -27.0418396 27.06465149 C-26.99015856 21.53623841 -26.81031678 17.42533616 -23.625 12.6875 C-19.67415208 8.83795587 -16.57000688 8.45003241 -11.25 8.4375 C-9.37423698 8.5013946 -7.49867462 8.57835391 -5.625 8.6875 C-5.686875 7.57375 -5.74875 6.46 -5.8125 5.3125 C-5.7196875 3.518125 -5.7196875 3.518125 -5.625 1.6875 C-2.625 -0.3125 -2.625 -0.3125 0 0 Z M-16.625 20.6875 C-16.73376242 22.18997887 -16.7740346 23.6974957 -16.78613281 25.20385742 C-16.79574036 26.16543259 -16.8053479 27.12700775 -16.81524658 28.11772156 C-16.81949646 29.16555313 -16.82374634 30.2133847 -16.828125 31.29296875 C-16.83382507 32.36492996 -16.83952515 33.43689117 -16.84539795 34.54133606 C-16.85486707 36.81701668 -16.86138948 39.09271113 -16.86523438 41.3684082 C-16.87491048 44.84285684 -16.90590415 48.31670675 -16.9375 51.79101562 C-16.94403269 53.99999648 -16.94928212 56.20898158 -16.953125 58.41796875 C-16.9654718 59.45567917 -16.9778186 60.49338959 -16.99053955 61.56254578 C-16.96895881 68.59051602 -16.02745353 72.96893417 -11.25 78.375 C-6.10805583 82.90480796 -2.18431883 84.16784115 4.625 84.375 C5.76497437 84.42297729 5.76497437 84.42297729 6.92797852 84.47192383 C9.07677401 84.5573232 11.22548078 84.62357378 13.375 84.6875 C14.28636719 84.72875 15.19773437 84.77 16.13671875 84.8125 C23.7880076 85.03228568 31.87609863 83.91934275 38.375 79.6875 C41.0943624 76.80766338 41.0943624 76.80766338 43.375 73.6875 C44.2103125 72.6975 44.2103125 72.6975 45.0625 71.6875 C48.71610445 66.12010274 48.67007924 60.39734026 48.640625 53.984375 C48.64253845 53.06537415 48.6444519 52.14637329 48.64642334 51.19952393 C48.64777929 49.26647669 48.64412424 47.33342016 48.63574219 45.40039062 C48.62498509 42.43338814 48.63568261 39.46698438 48.6484375 36.5 C48.64711676 34.61979033 48.64455615 32.73958103 48.640625 30.859375 C48.64467346 29.96982117 48.64872192 29.08026733 48.65289307 28.16375732 C48.84943955 23.44157716 48.84943955 23.44157716 46.375 19.6875 C44.16427023 19.44496187 44.16427023 19.44496187 41.75 19.5625 C40.52410156 19.58957031 40.52410156 19.58957031 39.2734375 19.6171875 C38.33371094 19.65199219 38.33371094 19.65199219 37.375 19.6875 C36.715 21.3375 36.055 22.9875 35.375 24.6875 C33.395 24.6875 31.415 24.6875 29.375 24.6875 C28.941875 23.7284375 28.941875 23.7284375 28.5 22.75 C27.54676549 20.53543921 27.54676549 20.53543921 25.375 19.6875 C23.7075394 19.60323906 22.03674813 19.58024857 20.3671875 19.58984375 C19.38105469 19.59306641 18.39492187 19.59628906 17.37890625 19.59960938 C15.83009766 19.61217773 15.83009766 19.61217773 14.25 19.625 C13.20972656 19.62951172 12.16945313 19.63402344 11.09765625 19.63867188 C8.52338038 19.65048048 5.94921854 19.66694925 3.375 19.6875 C3.045 21.3375 2.715 22.9875 2.375 24.6875 C0.395 24.6875 -1.585 24.6875 -3.625 24.6875 C-4.285 23.0375 -4.945 21.3875 -5.625 19.6875 C-7.27074566 19.66061849 -8.91661413 19.64115877 -10.5625 19.625 C-11.93728516 19.60759766 -11.93728516 19.60759766 -13.33984375 19.58984375 C-15.59093327 19.42800951 -15.59093327 19.42800951 -16.625 20.6875 Z M55.375 97.6875 C55.045 99.0075 54.715 100.3275 54.375 101.6875 C56.355 102.6775 56.355 102.6775 58.375 103.6875 C59.035 103.0275 59.695 102.3675 60.375 101.6875 C60.0564823 99.57929203 60.0564823 99.57929203 59.375 97.6875 C58.055 97.6875 56.735 97.6875 55.375 97.6875 Z " fill="#6A5384" transform="translate(149.625,147.3125)"/>
<path d="M0 0 C1.051875 0.0103125 2.10375 0.020625 3.1875 0.03125 C11.28984377 0.29196898 18.57701284 1.88539608 24.44091797 7.84887695 C30.80301751 15.60673307 31.27555596 24.16879961 30.5 33.875 C29.16235353 40.12345818 26.94257209 45.79881372 22 50 C10.29265519 56.27179186 0.50968145 54.875 -13.5 54.875 C-13.5 37.055 -13.5 19.235 -13.5 0.875 C-9.4898837 -1.13005815 -4.39209259 -0.13594572 0 0 Z M-2.5 11.875 C-2.52469575 15.96841499 -2.54285793 20.06180121 -2.55493164 24.15527344 C-2.5599643 25.54818477 -2.56679098 26.9410908 -2.57543945 28.33398438 C-2.58755152 30.33461246 -2.59270412 32.33527888 -2.59765625 34.3359375 C-2.60289307 35.54040527 -2.60812988 36.74487305 -2.61352539 37.98583984 C-2.70087891 40.8163677 -2.70087891 40.8163677 -1.5 42.875 C6.49301398 43.40230188 6.49301398 43.40230188 14.0625 41.25 C18.4601545 36.96510588 19.67793852 33.42642948 19.875 27.375 C19.73973962 22.84992538 19.15224226 19.66391752 16.5 15.875 C12.31003391 11.9553543 8.31910082 11.74620118 2.75 11.8125 C1.76515625 11.82152344 0.7803125 11.83054688 -0.234375 11.83984375 C-1.35585937 11.85724609 -1.35585937 11.85724609 -2.5 11.875 Z " fill="#6F5989" transform="translate(242.5,172.125)"/>
<path d="M0 0 C4.34032429 5.20838915 5.12564733 9.22158296 5.09765625 15.85546875 C5.0962413 16.51710526 5.09482635 17.17874176 5.09336853 17.86042786 C5.08777996 19.96949828 5.07522965 22.07846177 5.0625 24.1875 C5.05748352 25.61913909 5.05292087 27.05077985 5.04882812 28.48242188 C5.0378143 31.98831588 5.02055755 35.4941475 5 39 C1.37 39 -2.26 39 -6 39 C-6.89662007 29.00909069 -7.47695235 19.01580608 -8 9 C-12.57768074 8.55566661 -12.57768074 8.55566661 -16.70068359 10.14013672 C-18.535284 12.76621449 -18.41741168 14.76030553 -18.4765625 17.9453125 C-18.52296875 19.68361328 -18.52296875 19.68361328 -18.5703125 21.45703125 C-18.58835937 22.66746094 -18.60640625 23.87789062 -18.625 25.125 C-18.67576241 27.52352378 -18.73024035 29.92197284 -18.7890625 32.3203125 C-18.80662598 33.38523926 -18.82418945 34.45016602 -18.84228516 35.54736328 C-19 38 -19 38 -20 39 C-21.66429051 39.09823937 -23.33281931 39.12973631 -25 39.125 C-26.36125 39.12886719 -26.36125 39.12886719 -27.75 39.1328125 C-30 39 -30 39 -31 38 C-31.08865208 35.1156618 -31.11521296 32.25537842 -31.09765625 29.37109375 C-31.0962413 28.50686295 -31.09482635 27.64263214 -31.09336853 26.75221252 C-31.08775239 23.98060708 -31.07519719 21.2090812 -31.0625 18.4375 C-31.05748708 16.5631522 -31.05292381 14.68880315 -31.04882812 12.81445312 C-31.03777772 8.20960456 -31.0205023 3.60481579 -31 -1 C-29.25093341 -1.19601608 -27.50068154 -1.38147403 -25.75 -1.5625 C-24.77546875 -1.66691406 -23.8009375 -1.77132812 -22.796875 -1.87890625 C-20 -2 -20 -2 -17.83984375 -1.45703125 C-15.7511962 -0.75902511 -15.7511962 -0.75902511 -12.8125 -2.125 C-7.81928325 -3.27098417 -4.45386949 -2.48107237 0 0 Z " fill="#695284" transform="translate(427,188)"/>
<path d="M0 0 C1.20849609 -0.00386719 1.20849609 -0.00386719 2.44140625 -0.0078125 C4.4375 0.125 4.4375 0.125 5.4375 1.125 C5.59608842 3.26886657 5.68879298 5.41766838 5.75390625 7.56640625 C5.81674805 9.52416992 5.81674805 9.52416992 5.88085938 11.52148438 C5.92067608 12.9101533 5.96038825 14.29882522 6 15.6875 C6.04317989 17.08009183 6.086794 18.47267028 6.13085938 19.86523438 C6.23735876 23.28504801 6.33936923 26.70493763 6.4375 30.125 C8.3246875 30.1559375 8.3246875 30.1559375 10.25 30.1875 C10.95769531 30.19910156 11.66539062 30.21070313 12.39453125 30.22265625 C14.64055461 30.20763217 14.64055461 30.20763217 17.4375 29.125 C17.42178955 28.31756348 17.4060791 27.51012695 17.38989258 26.67822266 C17.32770321 23.03555244 17.28855991 19.39299366 17.25 15.75 C17.22486328 14.47898438 17.19972656 13.20796875 17.17382812 11.8984375 C17.16416016 10.68671875 17.15449219 9.475 17.14453125 8.2265625 C17.1288208 7.10588379 17.11311035 5.98520508 17.09692383 4.83056641 C17.20931396 3.93772949 17.3217041 3.04489258 17.4375 2.125 C21.10615241 -0.32076827 23.10950343 -0.11107254 27.4375 0.125 C28.0975 0.455 28.7575 0.785 29.4375 1.125 C29.4375 14.325 29.4375 27.525 29.4375 41.125 C18.4375 41.125 18.4375 41.125 16.4375 40.125 C15.90125 40.434375 15.365 40.74375 14.8125 41.0625 C10.74696725 42.88129097 6.6901189 42.84401775 2.50390625 41.5078125 C-1.5844686 39.5207744 -3.7999732 36.90831989 -5.76855469 32.75976562 C-7.48776393 27.05444392 -6.96270712 21.02351806 -6.8125 15.125 C-6.79239985 13.76434927 -6.77415529 12.4036698 -6.7578125 11.04296875 C-6.7109085 7.736237 -6.64527725 4.43099584 -6.5625 1.125 C-4.1828388 -0.0648306 -2.64764265 -0.00849966 0 0 Z " fill="#745F8D" transform="translate(362.5625,185.875)"/>
<path d="M0 0 C4.98845383 3.68195402 8.78294132 7.94212034 10.625 13.9375 C11.0782683 21.75637815 10.39719668 28.85874493 5.4921875 35.16015625 C1.28323434 39.16658656 -3.66709128 41.06338706 -9.4375 41.4375 C-15.42808907 40.67679028 -19.41811407 38.41603604 -24.1875 34.8125 C-28.1421192 29.61500048 -29.78519554 23.77269558 -29.25 17.25 C-28.05108312 10.15640848 -25.61953031 5.63367179 -20.09375 1.1015625 C-14.56066922 -2.64584221 -6.0972437 -1.91950265 0 0 Z M-17.375 12.9375 C-18.37132931 18.61818405 -18.50119088 23.296479 -15.1875 28.125 C-12.32813366 29.96770275 -10.76964825 30.9375 -7.375 30.9375 C-3.94862403 29.58288624 -2.68411876 28.54168666 -1 25.25 C-0.23619164 21.20181569 -0.12605156 17.88709668 -1.375 13.9375 C-3.85854681 10.53149295 -5.21110681 9.15572997 -9.375 8.375 C-13.39138711 9.12807258 -14.84053184 9.65760003 -17.375 12.9375 Z " fill="#735E8C" transform="translate(304.375,187.0625)"/>
<path d="M0 0 C5.78069334 3.49250223 7.79851665 7.78206106 9.52734375 14.12109375 C10.69813026 20.78780371 9.71437464 27.1082818 6 32.8125 C1.51972547 38.16393902 -3.0030286 40.47950318 -9.9375 41.25 C-15.20848783 41.01505287 -19.71584649 38.9752175 -23.54296875 35.3515625 C-29.0247193 29.01780967 -29.60323309 23.73612569 -29.390625 15.53125 C-28.868952 10.56492306 -27.33513182 7.45765816 -24 3.8125 C-23.32904297 3.03132812 -23.32904297 3.03132812 -22.64453125 2.234375 C-16.83372043 -2.78969897 -6.91046146 -2.63255675 0 0 Z M-15.3125 10.5 C-17.88816253 14.02961162 -19.08927748 16.38406038 -18.8125 20.8125 C-17.93365496 24.05746629 -17.11312488 26.18931049 -15 28.8125 C-12.19103937 30.471096 -12.19103937 30.471096 -9 30.8125 C-6.07121816 29.48123553 -4.26695035 28.07945035 -2 25.8125 C-0.7758441 19.69172052 -0.73039864 15.3960811 -4.1875 9.9375 C-7.96437293 7.59323404 -11.80374405 7.93955647 -15.3125 10.5 Z " fill="#6B5684" transform="translate(464,187.1875)"/>
<path d="M0 0 C2.69030603 2.81841585 4.27649546 5.10110535 5.625 8.75 C5.295 9.74 4.965 10.73 4.625 11.75 C1.325 12.08 -1.975 12.41 -5.375 12.75 C-6.035 11.43 -6.695 10.11 -7.375 8.75 C-10.17370027 7.35064987 -12.27998792 7.49734595 -15.375 7.75 C-17.93449546 9.60342775 -18.35418798 10.68756393 -19.375 13.75 C-19.92214691 20.15997244 -19.92214691 20.15997244 -17.375 25.75 C-14.60056523 27.34152808 -14.60056523 27.34152808 -11.375 27.75 C-8.51811671 26.7029689 -8.51811671 26.7029689 -6.375 24.75 C-6.045 23.76 -5.715 22.77 -5.375 21.75 C-2.075 22.08 1.225 22.41 4.625 22.75 C5.625 26.75 5.625 26.75 4.91015625 28.75 C1.71203394 33.98143331 -1.40076974 37.03079705 -7.375 38.75 C-12.92737453 39.68186705 -17.63177068 38.93137459 -22.5234375 36.125 C-29.78473123 30.73264685 -31.86397316 23.36550392 -33.375 14.75 C-33.375 14.09 -33.375 13.43 -33.375 12.75 C-32.715 12.75 -32.055 12.75 -31.375 12.75 C-31.33375 12.09 -31.2925 11.43 -31.25 10.75 C-29.62883385 5.19171607 -26.21336046 0.93727446 -21.375 -2.1875 C-13.95827531 -4.81425666 -6.49582761 -5.0092203 0 0 Z " fill="#695282" transform="translate(348.375,189.25)"/>
<path d="M0 0 C0.78503906 0.00386719 1.57007813 0.00773438 2.37890625 0.01171875 C4.4375 0.3125 4.4375 0.3125 6.4375 2.3125 C6.6328125 4.4765625 6.6328125 4.4765625 6.5625 6.9375 C6.54445312 7.75476563 6.52640625 8.57203125 6.5078125 9.4140625 C6.48460937 10.04054687 6.46140625 10.66703125 6.4375 11.3125 C7.530625 11.27125 8.62375 11.23 9.75 11.1875 C13.4375 11.3125 13.4375 11.3125 16.4375 13.3125 C17.42265378 15.93606462 17.85988929 18.55774123 18.4375 21.3125 C17.7775 21.3125 17.1175 21.3125 16.4375 21.3125 C16.458125 22.116875 16.47875 22.92125 16.5 23.75 C16.4375 26.3125 16.4375 26.3125 15.4375 27.3125 C13.91821962 27.38429964 12.39582518 27.39642007 10.875 27.375 C10.04871094 27.36597656 9.22242188 27.35695312 8.37109375 27.34765625 C7.41396484 27.33025391 7.41396484 27.33025391 6.4375 27.3125 C6.46070313 27.93898437 6.48390625 28.56546875 6.5078125 29.2109375 C6.53488281 30.43683594 6.53488281 30.43683594 6.5625 31.6875 C6.58570313 32.49960938 6.60890625 33.31171875 6.6328125 34.1484375 C6.4375 36.3125 6.4375 36.3125 4.4375 38.3125 C2.16015625 38.6484375 2.16015625 38.6484375 -0.5 38.6875 C-1.81291016 38.73003906 -1.81291016 38.73003906 -3.15234375 38.7734375 C-5.5625 38.3125 -5.5625 38.3125 -7.3671875 36.5234375 C-9.04756406 33.41529 -8.76267212 30.78215003 -8.5625 27.3125 C-11.2025 27.3125 -13.8425 27.3125 -16.5625 27.3125 C-18.88840854 23.67826791 -18.72515833 20.54161669 -18.5625 16.3125 C-17.9025 16.3125 -17.2425 16.3125 -16.5625 16.3125 C-16.5625 14.9925 -16.5625 13.6725 -16.5625 12.3125 C-13.9225 11.9825 -11.2825 11.6525 -8.5625 11.3125 C-8.4078125 9.4253125 -8.4078125 9.4253125 -8.25 7.5 C-8.0432183 4.97726323 -7.79613473 3.63610587 -6.3046875 1.5703125 C-4.07233197 -0.04138813 -2.73105131 -0.05849039 0 0 Z " fill="#695283" transform="translate(165.5625,179.6875)"/>
<path d="M0 0 C2.375 0.6875 2.375 0.6875 3.375 1.6875 C3.375 3.9975 3.375 6.3075 3.375 8.6875 C10.965 8.6875 18.555 8.6875 26.375 8.6875 C27.035 6.7075 27.695 4.7275 28.375 2.6875 C30.5 1.8125 30.5 1.8125 32.375 1.6875 C32.375 2.3475 32.375 3.0075 32.375 3.6875 C31.715 3.6875 31.055 3.6875 30.375 3.6875 C30.375 5.9975 30.375 8.3075 30.375 10.6875 C27.08523192 11.78408936 25.66196233 11.48703138 22.375 10.6875 C22.375 12.3375 22.375 13.9875 22.375 15.6875 C21.385 16.0175 20.395 16.3475 19.375 16.6875 C22.015 17.0175 24.655 17.3475 27.375 17.6875 C22.26231328 21.09595782 17.00915271 20.80669012 11 20.75 C9.13214844 20.73646484 9.13214844 20.73646484 7.2265625 20.72265625 C5.81503906 20.70525391 5.81503906 20.70525391 4.375 20.6875 C3.385 23.1625 3.385 23.1625 2.375 25.6875 C-0.5 25.8125 -0.5 25.8125 -3.625 25.6875 C-4.285 25.0275 -4.945 24.3675 -5.625 23.6875 C-5.625 22.3675 -5.625 21.0475 -5.625 19.6875 C-6.19347656 19.75710937 -6.76195312 19.82671875 -7.34765625 19.8984375 C-10.98602829 20.15354873 -13.60955921 20.31663179 -16.78125 18.3515625 C-18.48661784 16.86286024 -20.08775038 15.34832274 -21.625 13.6875 C-20.375 11.1875 -20.375 11.1875 -17.625 8.6875 C-13.59505043 8.23198708 -9.66432853 8.40169845 -5.625 8.6875 C-5.686875 7.57375 -5.74875 6.46 -5.8125 5.3125 C-5.750625 4.11625 -5.68875 2.92 -5.625 1.6875 C-2.625 -0.3125 -2.625 -0.3125 0 0 Z " fill="#695283" transform="translate(149.625,147.3125)"/>
<path d="M0 0 C1 3 1 3 0.9375 6.9375 C0.88125005 11.29869698 0.88125005 11.29869698 3 15 C5.77443477 16.59152808 5.77443477 16.59152808 9 17 C11.85688329 15.9529689 11.85688329 15.9529689 14 14 C14.33 13.01 14.66 12.02 15 11 C18.3 11.33 21.6 11.66 25 12 C26 16 26 16 25.28515625 18 C22.08703394 23.23143331 18.97423026 26.28079705 13 28 C7.4437595 28.93251589 2.76750207 28.16329458 -2.14453125 25.3984375 C-7.15536479 21.62185138 -10.74208165 16.14982305 -12 10 C-11.625 7.625 -11.625 7.625 -11 6 C-11 6.66 -11 7.32 -11 8 C-10.01 7.67 -9.02 7.34 -8 7 C-7.01 7.66 -6.02 8.32 -5 9 C-5 9.66 -5 10.32 -5 11 C-4.34 11 -3.68 11 -3 11 C-2.855625 9.906875 -2.71125 8.81375 -2.5625 7.6875 C-1.64 1.64 -1.64 1.64 0 0 Z " fill="#745F8C" transform="translate(328,200)"/>
<path d="M0 0 C3.79217779 0.84270618 4.92528991 1.89172451 7.15625 5.125 C10.18655853 11.50670935 9.42157751 18.60776393 9.25 25.5 C9.22990166 26.90882874 9.21165678 28.31768521 9.1953125 29.7265625 C9.14839203 33.15175664 9.08274777 36.57551524 9 40 C5.37 40 1.74 40 -2 40 C-2.89662007 30.00909069 -3.47695235 20.01580608 -4 10 C-4.66 9.67 -5.32 9.34 -6 9 C-5.01 8.67 -4.02 8.34 -3 8 C-2.67 7.34 -2.34 6.68 -2 6 C-1.01 5.34 -0.02 4.68 1 4 C0.67 2.68 0.34 1.36 0 0 Z " fill="#776091" transform="translate(423,187)"/>
<path d="M0 0 C0.66 0 1.32 0 2 0 C6.13032771 48.0150596 6.13032771 48.0150596 -7.375 64.3125 C-10.58937733 67.79533082 -14.03868076 70.413016 -18 73 C-18.66 72.67 -19.32 72.34 -20 72 C-19.484375 71.401875 -18.96875 70.80375 -18.4375 70.1875 C-17.7259375 69.1046875 -17.7259375 69.1046875 -17 68 C-17.33 67.01 -17.66 66.02 -18 65 C-18.66 65 -19.32 65 -20 65 C-20 64.34 -20 63.68 -20 63 C-20.66 62.67 -21.32 62.34 -22 62 C-21.38125 61.9175 -20.7625 61.835 -20.125 61.75 C-17.81562433 61.18741541 -17.81562433 61.18741541 -16.75 58.9375 C-16.5025 58.298125 -16.255 57.65875 -16 57 C-15.34 57 -14.68 57 -14 57 C-13.731875 56.29875 -13.46375 55.5975 -13.1875 54.875 C-11.9318551 51.8350176 -10.49764877 48.9272226 -9 46 C-8.67 46.99 -8.34 47.98 -8 49 C-7.01 48.34 -6.02 47.68 -5 47 C-4 48 -3 49 -2 50 C-0.38756815 48.38756815 -0.83461961 46.61946654 -0.79467773 44.38842773 C-0.77473251 43.40748642 -0.75478729 42.4265451 -0.73423767 41.4158783 C-0.71752518 40.3492244 -0.70081268 39.2825705 -0.68359375 38.18359375 C-0.66281265 37.0974025 -0.64203156 36.01121124 -0.62062073 34.8921051 C-0.55500558 31.40730373 -0.49618489 27.92242432 -0.4375 24.4375 C-0.39432615 22.08137199 -0.35071224 19.72525201 -0.30664062 17.36914062 C-0.19931208 11.57951063 -0.09756835 5.78980225 0 0 Z " fill="#7E6A96" transform="translate(206,166)"/>
<path d="M0 0 C5.7575987 -0.34545592 10.08040341 -0.38905543 15 3 C18.69074491 6.58453643 21.48026443 10.02028392 23 15 C22.9765625 17.89453125 22.9765625 17.89453125 22.625 20.8125 C22.51414062 21.78832031 22.40328125 22.76414063 22.2890625 23.76953125 C22.14597656 24.87361328 22.14597656 24.87361328 22 26 C20 25 20 25 18 23 C17.67 23.66 17.34 24.32 17 25 C16.67 24.34 16.34 23.68 16 23 C15.34 23.99 14.68 24.98 14 26 C13.34 26 12.68 26 12 26 C11.90203125 25.25234375 11.8040625 24.5046875 11.703125 23.734375 C10.73190784 16.40791553 10.73190784 16.40791553 6 11 C6 10.34 6 9.68 6 9 C4.02 9 2.04 9 0 9 C-1.125 6.75 -1.125 6.75 -2 4 C-1.0546875 1.828125 -1.0546875 1.828125 0 0 Z " fill="#6C5685" transform="translate(292,186)"/>
<path d="M0 0 C1.20849609 -0.00386719 1.20849609 -0.00386719 2.44140625 -0.0078125 C4.4375 0.125 4.4375 0.125 5.4375 1.125 C5.51069621 3.82154854 5.52992537 6.49191458 5.5 9.1875 C5.49548828 9.94611328 5.49097656 10.70472656 5.48632812 11.48632812 C5.4745068 13.36591871 5.45657078 15.24546899 5.4375 17.125 C4.7775 17.125 4.1175 17.125 3.4375 17.125 C3.458125 18.40375 3.47875 19.6825 3.5 21 C3.5625 24.875 3.5625 24.875 2.4375 27.125 C1.7775 27.125 1.1175 27.125 0.4375 27.125 C0.1075 27.785 -0.2225 28.445 -0.5625 29.125 C-0.8925 27.805 -1.2225 26.485 -1.5625 25.125 C-2.2225 25.125 -2.8825 25.125 -3.5625 25.125 C-3.8925 26.445 -4.2225 27.765 -4.5625 29.125 C-5.2225 29.125 -5.8825 29.125 -6.5625 29.125 C-6.5625 19.885 -6.5625 10.645 -6.5625 1.125 C-4.1828388 -0.0648306 -2.64764265 -0.00849966 0 0 Z " fill="#553F80" transform="translate(362.5625,185.875)"/>
<path d="M0 0 C-0.185625 0.7425 -0.37125 1.485 -0.5625 2.25 C-0.99203108 4.94990963 -0.85122974 6.44631077 0 9 C1.98 9 3.96 9 6 9 C6 9.33 6 9.66 6 10 C2.97265625 10.68359375 2.97265625 10.68359375 -0.0546875 11.3671875 C-2.20719964 11.90474428 -2.20719964 11.90474428 -4 14 C-4.46290221 16.66242821 -4.46290221 16.66242821 -4.625 19.625 C-4.69976562 20.62789062 -4.77453125 21.63078125 -4.8515625 22.6640625 C-4.90054687 23.43492187 -4.94953125 24.20578125 -5 25 C-5.33 25 -5.66 25 -6 25 C-6.33 23.02 -6.66 21.04 -7 19 C-10.63433869 20.77524749 -10.63433869 20.77524749 -12.9375 23.9375 C-13.01488728 26.49128021 -12.18678371 27.7660542 -11 30 C-11 31.32 -11 32.64 -11 34 C-11.99 33.67 -12.98 33.34 -14 33 C-17.84326321 25.31347357 -17.30112145 18.26478699 -14.875 10.3125 C-11.60060504 4.52773557 -6.94295236 0 0 0 Z " fill="#766195" transform="translate(292,186)"/>
<path d="M0 0 C0.33 0 0.66 0 1 0 C1.01417969 0.66386719 1.02835937 1.32773438 1.04296875 2.01171875 C1.35429744 7.96228239 1.35429744 7.96228239 4.375 13 C6.20508127 14.39434763 8.08566893 15.72377928 10 17 C10.6875 19.625 10.6875 19.625 11 22 C10.34 22 9.68 22 9 22 C9.95865509 24.33075929 9.95865509 24.33075929 13 26 C7.49435232 26.60923151 3.15412007 26.66724033 -1.5625 23.5 C-4.32429021 21.15414205 -5.48578375 19.54438579 -5.9375 15.9375 C-5.958125 14.638125 -5.97875 13.33875 -6 12 C-6.31323028 10.32943851 -6.63678515 8.66041075 -7 7 C-2.25 4 -2.25 4 0 4 C0 2.68 0 1.36 0 0 Z " fill="#6A5384" transform="translate(285,201)"/>
<path d="M0 0 C2.11780664 3.17670996 2.24892146 3.96247318 2.23046875 7.59765625 C2.22853516 8.48130859 2.22660156 9.36496094 2.22460938 10.27539062 C2.21236328 11.19513672 2.20011719 12.11488281 2.1875 13.0625 C2.18685547 13.98611328 2.18621094 14.90972656 2.18554688 15.86132812 C2.14046308 22.71907383 2.14046308 22.71907383 1 25 C-1.97 25 -4.94 25 -8 25 C-8 19.72 -8 14.44 -8 9 C-7.01 9.495 -7.01 9.495 -6 10 C-5.34 9.34 -4.68 8.68 -4 8 C-3.67 8.66 -3.34 9.32 -3 10 C-1.1261218 6.83783053 -0.90166642 4.63834261 -1 1 C-0.67 0.67 -0.34 0.34 0 0 Z " fill="#644B80" transform="translate(406,200)"/>
<path d="M0 0 C8.77578475 0.83497758 8.77578475 0.83497758 11.77734375 3.69140625 C13.125 5.625 13.125 5.625 15 9 C14.01 9.495 14.01 9.495 13 10 C13 12.97 13 15.94 13 19 C6.37641256 15.68820628 2.4652665 10.9275366 0 4 C0 2.68 0 1.36 0 0 Z " fill="#705A89" transform="translate(160,244)"/>
<path d="M0 0 C3.3 0.33 6.6 0.66 10 1 C11 5 11 5 10.28515625 7 C6.94755239 12.45959481 3.92335106 14.59050127 -2 17 C-2.33 16.34 -2.66 15.68 -3 15 C-2.34 15 -1.68 15 -1 15 C-1.185625 14.401875 -1.37125 13.80375 -1.5625 13.1875 C-2 11 -2 11 -1 8 C-1.66 7.67 -2.32 7.34 -3 7 C-2.690625 6.401875 -2.38125 5.80375 -2.0625 5.1875 C-0.89790296 2.91043228 -0.89790296 2.91043228 0 0 Z " fill="#644D81" transform="translate(343,211)"/>
<path d="M0 0 C0.33 1.32 0.66 2.64 1 4 C2.65 4 4.3 4 6 4 C6 4.66 6 5.32 6 6 C8.97 6 11.94 6 15 6 C15.33 7.32 15.66 8.64 16 10 C16.66 10.33 17.32 10.66 18 11 C17.625 12.9375 17.625 12.9375 17 15 C14.31257967 16.34371016 12.47935898 15.95015402 9.5 15.6875 C8.03046875 15.56955078 8.03046875 15.56955078 6.53125 15.44921875 C4 15 4 15 2 13 C2.66 13 3.32 13 4 13 C4 12.01 4 11.02 4 10 C2.68 9.34 1.36 8.68 0 8 C0 5.36 0 2.72 0 0 Z " fill="#644D7F" transform="translate(195,244)"/>
<path d="M0 0 C1.22589844 0.01353516 1.22589844 0.01353516 2.4765625 0.02734375 C3.41628906 0.04474609 3.41628906 0.04474609 4.375 0.0625 C4.705 0.7225 5.035 1.3825 5.375 2.0625 C4.385 2.0625 3.395 2.0625 2.375 2.0625 C2.38660156 2.97773438 2.39820313 3.89296875 2.41015625 4.8359375 C2.41917969 6.02445313 2.42820312 7.21296875 2.4375 8.4375 C2.44910156 9.62085938 2.46070313 10.80421875 2.47265625 12.0234375 C2.375 15.0625 2.375 15.0625 1.375 17.0625 C0.715 17.0625 0.055 17.0625 -0.625 17.0625 C-0.625 17.7225 -0.625 18.3825 -0.625 19.0625 C-1.615 19.0625 -2.605 19.0625 -3.625 19.0625 C-7.44136773 13.33794841 -6.91782789 7.76500505 -6.625 1.0625 C-4.21954362 -0.14022819 -2.67503047 -0.03821472 0 0 Z " fill="#634B80" transform="translate(362.625,185.9375)"/>
<path d="M0 0 C0.66 0 1.32 0 2 0 C5.64735516 42.40050378 5.64735516 42.40050378 -2 57 C-2.33 57 -2.66 57 -3 57 C-3.125 54.125 -3.125 54.125 -3 51 C-2.34 50.34 -1.68 49.68 -1 49 C-0.66947545 46.81875409 -0.66947545 46.81875409 -0.68115234 44.27490234 C-0.66128265 43.29403656 -0.64141296 42.31317078 -0.62094116 41.30258179 C-0.60938995 40.24108917 -0.59783875 39.17959656 -0.5859375 38.0859375 C-0.56657135 37.00116119 -0.5472052 35.91638489 -0.5272522 34.79873657 C-0.46733574 31.32423841 -0.42102261 27.84970733 -0.375 24.375 C-0.33683135 22.02342282 -0.29778029 19.67185979 -0.2578125 17.3203125 C-0.16162441 11.5470003 -0.07661247 5.77360334 0 0 Z " fill="#807297" transform="translate(206,166)"/>
<path d="M0 0 C0.99 0.33 1.98 0.66 3 1 C3.7425 0.835 4.485 0.67 5.25 0.5 C8.73730891 -0.13405616 11.54791923 0.26975215 15 1 C16.43088528 3.86177057 15.59991697 5.93375773 15 9 C14.34 9 13.68 9 13 9 C12.67 9.66 12.34 10.32 12 11 C9.03 10.505 9.03 10.505 6 10 C5.67 9.01 5.34 8.02 5 7 C4.67 6.34 4.34 5.68 4 5 C2.35 5.33 0.7 5.66 -1 6 C-0.67 5.34 -0.34 4.68 0 4 C-0.33 3.01 -0.66 2.02 -1 1 C-0.67 0.67 -0.34 0.34 0 0 Z " fill="#654E80" transform="translate(327,217)"/>
<path d="M0 0 C2.64 0 5.28 0 8 0 C8 0.33 8 0.66 8 1 C6.35 1 4.7 1 3 1 C2.67 13.21 2.34 25.42 2 38 C4.97 38 7.94 38 11 38 C11.33 37.34 11.66 36.68 12 36 C11.67 37.32 11.34 38.64 11 40 C9.35425434 40.02688151 7.70838587 40.04634123 6.0625 40.0625 C5.14597656 40.07410156 4.22945313 40.08570313 3.28515625 40.09765625 C1 40 1 40 0 39 C-0.08865208 36.1156618 -0.11521296 33.25537842 -0.09765625 30.37109375 C-0.0962413 29.50686295 -0.09482635 28.64263214 -0.09336853 27.75221252 C-0.08775239 24.98060708 -0.07519719 22.2090812 -0.0625 19.4375 C-0.05748708 17.5631522 -0.05292381 15.68880315 -0.04882812 13.81445312 C-0.03777772 9.20960456 -0.0205023 4.60481579 0 0 Z " fill="#917DA0" transform="translate(396,187)"/>
<path d="M0 0 C2.70458547 0.07512737 4.4163612 0.44554314 6.40625 2.3359375 C10.42044176 7.12029396 11.52204019 9.73551774 11 16 C8.93638856 19.90612165 7.23910579 22.48603365 3 24 C3.33 22.68 3.66 21.36 4 20 C3.01 19.67 2.02 19.34 1 19 C0.67 17.35 0.34 15.7 0 14 C0.99 14 1.98 14 3 14 C3 14.66 3 15.32 3 16 C3.99 16 4.98 16 6 16 C6 15.34 6 14.68 6 14 C6.66 13.67 7.32 13.34 8 13 C8.33218192 9.99740483 8.33218192 9.99740483 6.5 8.3125 C6.005 7.879375 5.51 7.44625 5 7 C5.33 6.01 5.66 5.02 6 4 C4.68 4 3.36 4 2 4 C2 3.34 2 2.68 2 2 C1.01 1.67 0.02 1.34 -1 1 C-0.67 0.67 -0.34 0.34 0 0 Z " fill="#796590" transform="translate(209,235)"/>
<path d="M0 0 C0.83265381 0.04713135 1.66530762 0.0942627 2.52319336 0.14282227 C3.871875 0.21533203 3.871875 0.21533203 5.24780273 0.28930664 C6.19333008 0.34538086 7.13885742 0.40145508 8.11303711 0.45922852 C9.53712891 0.53753906 9.53712891 0.53753906 10.98999023 0.61743164 C13.34380663 0.74754209 15.6972441 0.88251963 18.05053711 1.02172852 C17.72053711 1.68172852 17.39053711 2.34172852 17.05053711 3.02172852 C10.78053711 3.02172852 4.51053711 3.02172852 -1.94946289 3.02172852 C-1.61946289 19.19172852 -1.28946289 35.36172852 -0.94946289 52.02172852 C1.03053711 52.35172852 3.01053711 52.68172852 5.05053711 53.02172852 C5.05053711 53.35172852 5.05053711 53.68172852 5.05053711 54.02172852 C2.41053711 54.02172852 -0.22946289 54.02172852 -2.94946289 54.02172852 C-2.97472937 46.49203199 -2.9922943 38.96234632 -3.00439453 31.43261719 C-3.00943659 28.86881095 -3.01627003 26.3050076 -3.02490234 23.74121094 C-3.03697353 20.0651783 -3.04269231 16.38918354 -3.04711914 12.71313477 C-3.05228043 11.55898575 -3.05744171 10.40483673 -3.0627594 9.2157135 C-3.06283493 8.15468918 -3.06291046 7.09366486 -3.06298828 6.00048828 C-3.06520889 5.06116959 -3.0674295 4.12185089 -3.06971741 3.15406799 C-2.91404599 0.39372007 -2.7792783 0.03097755 0 0 Z " fill="#56456F" transform="translate(232.949462890625,171.978271484375)"/>
<path d="M0 0 C-0.185625 0.7425 -0.37125 1.485 -0.5625 2.25 C-0.99203108 4.94990963 -0.85122974 6.44631077 0 9 C1.98 9 3.96 9 6 9 C6 9.33 6 9.66 6 10 C4.741875 10.28875 3.48375 10.5775 2.1875 10.875 C-0.8539399 11.57303539 -2.30669878 12.20446585 -5 14 C-5.66 12.02 -6.32 10.04 -7 8 C-8.65 8.33 -10.3 8.66 -12 9 C-12 9.66 -12 10.32 -12 11 C-12.66 11 -13.32 11 -14 11 C-13.43736042 7.49490749 -12.34814818 6.04731992 -9.625 3.8125 C-9.01914062 3.30332031 -8.41328125 2.79414063 -7.7890625 2.26953125 C-5.15546055 0.40070891 -3.21533272 0 0 0 Z " fill="#796690" transform="translate(292,186)"/>
<path d="M0 0 C1.875 0.6875 1.875 0.6875 4 2 C4.309375 2.825 4.61875 3.65 4.9375 4.5 C5.78638336 7.24770098 5.78638336 7.24770098 8.625 8.3125 C9.40875 8.539375 10.1925 8.76625 11 9 C9 11 9 11 5.3125 11.375 C0.54258556 11.24467447 -2.17516011 9.83038152 -6 7 C-7.4375 4.25 -7.4375 4.25 -8 2 C-5.36 2.33 -2.72 2.66 0 3 C0 2.01 0 1.02 0 0 Z " fill="#776390" transform="translate(366,217)"/>
<path d="M0 0 C5.75 0.75 5.75 0.75 8 3 C6.68 3 5.36 3 4 3 C4 4.98 4 6.96 4 9 C4.66 9.33 5.32 9.66 6 10 C5.67 10.99 5.34 11.98 5 13 C5.99 13 6.98 13 8 13 C8 14.98 8 16.96 8 19 C7.01 18.67 6.02 18.34 5 18 C4.28272222 16.35448038 3.61674772 14.68577711 3 13 C0.23776722 10.23776722 -2.20706617 10.42143709 -6 10 C-5.01 9.67 -4.02 9.34 -3 9 C-3.061875 8.2575 -3.12375 7.515 -3.1875 6.75 C-2.96905704 3.54616994 -2.09749995 2.35968744 0 0 Z " fill="#786391" transform="translate(457,186)"/>
<path d="M0 0 C0 1.32 0 2.64 0 4 C0.66 4.33 1.32 4.66 2 5 C2 5.66 2 6.32 2 7 C0.68 7 -0.64 7 -2 7 C-2.33 7.99 -2.66 8.98 -3 10 C-5.64 10 -8.28 10 -11 10 C-10.649375 9.071875 -10.29875 8.14375 -9.9375 7.1875 C-8.67617372 4.0197047 -8.67617372 4.0197047 -10 1 C-6.21812119 -0.83691257 -4.05431692 -1.15837626 0 0 Z " fill="#624C80" transform="translate(423,186)"/>
<path d="M0 0 C2.66666667 2.66666667 5.33333333 5.33333333 8 8 C7.01 8.66 6.02 9.32 5 10 C5.99 10.33 6.98 10.66 8 11 C7.67 12.65 7.34 14.3 7 16 C8.65 16.33 10.3 16.66 12 17 C12 17.33 12 17.66 12 18 C5.92671312 18.50610724 2.22771463 17.04157942 -3 14 C-3 13.01 -3 12.02 -3 11 C-2.01 10.67 -1.02 10.34 0 10 C1.68538601 8.00334686 1.68538601 8.00334686 3 6 C2.34 6 1.68 6 1 6 C1 5.34 1 4.68 1 4 C0.34 3.67 -0.32 3.34 -1 3 C-0.67 2.01 -0.34 1.02 0 0 Z " fill="#7F6B95" transform="translate(445,210)"/>
<path d="M0 0 C1.45792884 -0.05399736 2.91642712 -0.09279177 4.375 -0.125 C5.18710937 -0.14820313 5.99921875 -0.17140625 6.8359375 -0.1953125 C9 0 9 0 11 2 C11 2.66 11 3.32 11 4 C10.01 4.66 9.02 5.32 8 6 C7.67 6.99 7.34 7.98 7 9 C7.66 9.33 8.32 9.66 9 10 C6.03 9.67 3.06 9.34 0 9 C-1.125 6.75 -1.125 6.75 -2 4 C-1.0546875 1.828125 -1.0546875 1.828125 0 0 Z " fill="#644E80" transform="translate(292,186)"/>
<path d="M0 0 C11.71811669 -0.10902914 23.3222103 -0.09908609 35 1 C31.56849142 3.28767239 30.26798333 3.25682799 26.23046875 3.265625 C24.52600586 3.26949219 24.52600586 3.26949219 22.78710938 3.2734375 C21.59923828 3.26570312 20.41136719 3.25796875 19.1875 3.25 C17.4230957 3.26160156 17.4230957 3.26160156 15.62304688 3.2734375 C14.48287109 3.27085937 13.34269531 3.26828125 12.16796875 3.265625 C11.12922607 3.26336914 10.0904834 3.26111328 9.02026367 3.25878906 C5.75520483 2.97902491 3.05822079 2.15029539 0 1 C0 0.67 0 0.34 0 0 Z " fill="#513E65" transform="translate(144,231)"/>
<path d="M0 0 C1.42944945 2.35438733 2.08661261 3.48032433 1.625 6.25 C1.41875 6.8275 1.2125 7.405 1 8 C-7.57142857 9.42857143 -7.57142857 9.42857143 -11 7 C-11 4 -11 4 -10 2 C-8.22265625 1.3671875 -8.22265625 1.3671875 -6.0625 0.875 C-5.35222656 0.70742187 -4.64195312 0.53984375 -3.91015625 0.3671875 C-2 0 -2 0 0 0 Z " fill="#6A5386" transform="translate(194,254)"/>
<path d="M0 0 C4.44044513 1.35680268 6.45164515 3.13353058 9 7 C10.25 10.3125 10.25 10.3125 11 13 C7.17679443 14.42258812 4.08718695 15.24042276 0 15 C0.33 14.34 0.66 13.68 1 13 C1.99 13.33 2.98 13.66 4 14 C4 13.01 4 12.02 4 11 C4.66 10.34 5.32 9.68 6 9 C4.68798827 7.43750191 4.68798827 7.43750191 3 6 C2.01 6 1.02 6 0 6 C0 4.02 0 2.04 0 0 Z " fill="#745E87" transform="translate(343,187)"/>
<path d="M0 0 C2 3 2 3 3 6 C1.5625 9.1875 1.5625 9.1875 0 12 C-0.99 12 -1.98 12 -3 12 C-3.33 12.66 -3.66 13.32 -4 14 C-8.06153846 8.58461538 -8.06153846 8.58461538 -7.75 5.625 C-7.5025 5.08875 -7.255 4.5525 -7 4 C-5.02 3.67 -3.04 3.34 -1 3 C-0.67 2.01 -0.34 1.02 0 0 Z " fill="#796491" transform="translate(133,217)"/>
<path d="M0 0 C0.66 0 1.32 0 2 0 C2.33 1.32 2.66 2.64 3 4 C4.32 4.33 5.64 4.66 7 5 C6.67 7.64 6.34 10.28 6 13 C5.01 12.67 4.02 12.34 3 12 C3 11.34 3 10.68 3 10 C0.03 9.505 0.03 9.505 -3 9 C-3.66 7.02 -4.32 5.04 -5 3 C-4.34 3 -3.68 3 -3 3 C-3 3.66 -3 4.32 -3 5 C-0.7763932 3.0745356 -0.7763932 3.0745356 0 0 Z " fill="#5E477A" transform="translate(320,199)"/>
<path d="M0 0 C2.97 0 5.94 0 9 0 C9.625 2.875 9.625 2.875 10 6 C9.34 6.66 8.68 7.32 8 8 C7.67 8.66 7.34 9.32 7 10 C4.03 9.505 4.03 9.505 1 9 C1.20625 8.38125 1.4125 7.7625 1.625 7.125 C1.74875 6.42375 1.8725 5.7225 2 5 C1.34 4.34 0.68 3.68 0 3 C0 2.01 0 1.02 0 0 Z " fill="#644D80" transform="translate(450,218)"/>
<path d="M0 0 C0.66 0.33 1.32 0.66 2 1 C1.67 1.99 1.34 2.98 1 4 C0.34 4 -0.32 4 -1 4 C-0.67 5.98 -0.34 7.96 0 10 C-2.64 9.67 -5.28 9.34 -8 9 C-8.66666667 7 -9.33333333 5 -10 3 C-9.67 2.34 -9.34 1.68 -9 1 C-7.88625 1.020625 -6.7725 1.04125 -5.625 1.0625 C-2.16784079 1.26380718 -2.16784079 1.26380718 0 0 Z " fill="#675181" transform="translate(379,216)"/>
<path d="M0 0 C0 3 0 3 -1 5 C0.4540625 5.4021875 0.4540625 5.4021875 1.9375 5.8125 C2.948125 6.204375 3.95875 6.59625 5 7 C5.33 7.99 5.66 8.98 6 10 C3.36 11.98 0.72 13.96 -2 16 C-2.66 15.67 -3.32 15.34 -4 15 C-3.484375 14.401875 -2.96875 13.80375 -2.4375 13.1875 C-1.963125 12.465625 -1.48875 11.74375 -1 11 C-1.33 10.01 -1.66 9.02 -2 8 C-2.66 8 -3.32 8 -4 8 C-4 7.34 -4 6.68 -4 6 C-4.66 5.67 -5.32 5.34 -6 5 C-5.38125 4.9175 -4.7625 4.835 -4.125 4.75 C-1.81562433 4.18741541 -1.81562433 4.18741541 -0.75 1.9375 C-0.5025 1.298125 -0.255 0.65875 0 0 Z " fill="#826F97" transform="translate(190,223)"/>
<path d="M0 0 C0.66 0.33 1.32 0.66 2 1 C1.67 1.66 1.34 2.32 1 3 C-1.41475089 8.36067067 -1.41475089 8.36067067 -3 14 C-5 13 -5 13 -8 11 C-8.66 10.67 -9.32 10.34 -10 10 C-9.07134386 5.93712938 -7.38267431 4.31270784 -4 2.125 C-1.875 0.8203125 -1.875 0.8203125 0 0 Z " fill="#644D7F" transform="translate(199,218)"/>
<path d="M0 0 C1.65 0.33 3.3 0.66 5 1 C4.46252091 5.56857227 2.93335989 8.46492526 0 12 C-2.56695592 13.59514469 -5.20879606 14.84828964 -8 16 C-8.33 15.34 -8.66 14.68 -9 14 C-8.34 14 -7.68 14 -7 14 C-7 13.34 -7 12.68 -7 12 C-6.01 12 -5.02 12 -4 12 C-3.87625 11.4225 -3.7525 10.845 -3.625 10.25 C-2.99351176 7.97664233 -2.11141809 6.0746471 -1 4 C-0.34 4 0.32 4 1 4 C1.33 3.34 1.66 2.68 2 2 C1.34 1.34 0.68 0.68 0 0 Z " fill="#857598" transform="translate(349,212)"/>
<path d="M0 0 C0.556875 0.226875 1.11375 0.45375 1.6875 0.6875 C2.0175 2.3375 2.3475 3.9875 2.6875 5.6875 C3.6775 5.0275 4.6675 4.3675 5.6875 3.6875 C6.6775 4.0175 7.6675 4.3475 8.6875 4.6875 C8.0275 6.0075 7.3675 7.3275 6.6875 8.6875 C5.32625 8.378125 5.32625 8.378125 3.9375 8.0625 C0.57722103 7.6747755 -0.55325815 7.88338033 -3.3125 9.6875 C-3.60125 8.90375 -3.89 8.12 -4.1875 7.3125 C-5.16162254 4.59078368 -5.16162254 4.59078368 -7.3125 2.6875 C-2.88173077 -0.38942308 -2.88173077 -0.38942308 0 0 Z M-3.3125 1.6875 C-3.3125 2.6775 -3.3125 3.6675 -3.3125 4.6875 C-2.6525 4.0275 -1.9925 3.3675 -1.3125 2.6875 C-1.9725 2.3575 -2.6325 2.0275 -3.3125 1.6875 Z " fill="#705A8A" transform="translate(260.3125,211.3125)"/>
<path d="M0 0 C-0.33 1.32 -0.66 2.64 -1 4 C-1.99 4 -2.98 4 -4 4 C-4.6496875 4.8971875 -4.6496875 4.8971875 -5.3125 5.8125 C-7.48795609 8.63253568 -9.75477991 9.61905528 -13 11 C-13.66 11 -14.32 11 -15 11 C-13.68578373 7.05735118 -12.21086827 4.66043371 -9 2 C-5.6011762 0.3005881 -3.89635934 0 0 0 Z " fill="#74608A" transform="translate(452,186)"/>
<path d="M0 0 C0.66 0 1.32 0 2 0 C1.814375 0.763125 1.62875 1.52625 1.4375 2.3125 C0.77180827 5.08967375 0.77180827 5.08967375 2 8 C2.66 8 3.32 8 4 8 C3.125 11.875 3.125 11.875 2 13 C0.33985384 13.36442233 -1.32706064 13.69972883 -3 14 C-3.9630643 8.65937073 -3.9630643 8.65937073 -4 6 C-2.625 4.1875 -2.625 4.1875 -1 3 C-0.67 2.01 -0.34 1.02 0 0 Z " fill="#644C7E" transform="translate(444,208)"/>
<path d="M0 0 C0.66 0 1.32 0 2 0 C4.08387478 18.9037212 4.08387478 18.9037212 2 28 C1.34 27.67 0.68 27.34 0 27 C0 18.09 0 9.18 0 0 Z " fill="#5E3779" transform="translate(238,186)"/>
<path d="M0 0 C1.65 0 3.3 0 5 0 C4.67 1.32 4.34 2.64 4 4 C3.34 4 2.68 4 2 4 C2 5.65 2 7.3 2 9 C0.02 9.33 -1.96 9.66 -4 10 C-4 9.34 -4 8.68 -4 8 C-4.99 7.67 -5.98 7.34 -7 7 C-5.6875 5 -5.6875 5 -4 3 C-3.01 3 -2.02 3 -1 3 C-0.67 2.01 -0.34 1.02 0 0 Z " fill="#624B7E" transform="translate(452,186)"/>
<path d="M0 0 C0.66 0.33 1.32 0.66 2 1 C2 3.31 2 5.62 2 8 C2.77085937 7.96519531 3.54171875 7.93039063 4.3359375 7.89453125 C5.33882812 7.86746094 6.34171875 7.84039062 7.375 7.8125 C8.87160156 7.76029297 8.87160156 7.76029297 10.3984375 7.70703125 C11.25695312 7.80371094 12.11546875 7.90039062 13 8 C13.99 9.485 13.99 9.485 15 11 C13.06257659 11.02703381 11.12504521 11.04641125 9.1875 11.0625 C8.10855469 11.07410156 7.02960938 11.08570313 5.91796875 11.09765625 C3 11 3 11 0 10 C0.33 7.36 0.66 4.72 1 2 C-1.64 2 -4.28 2 -7 2 C-7 3.98 -7 5.96 -7 8 C-7.33 8 -7.66 8 -8 8 C-8 5.69 -8 3.38 -8 1 C-4.92477747 -0.86709939 -3.39885889 -1.24624826 0 0 Z " fill="#837396" transform="translate(185,148)"/>
<path d="M0 0 C2.64 0.33 5.28 0.66 8 1 C8 1.99 8 2.98 8 4 C7.34 4 6.68 4 6 4 C5.34 6.31 4.68 8.62 4 11 C3.34 11 2.68 11 2 11 C2 10.34 2 9.68 2 9 C1.01 8.67 0.02 8.34 -1 8 C-0.649375 7.05125 -0.29875 6.1025 0.0625 5.125 C1.35026777 2.12939828 1.35026777 2.12939828 0 0 Z " fill="#634C7F" transform="translate(259,180)"/>
<path d="M0 0 C2.1097676 3.1646514 2.25552605 3.97393773 2.265625 7.59765625 C2.26820313 8.48130859 2.27078125 9.36496094 2.2734375 10.27539062 C2.26570313 11.19513672 2.25796875 12.11488281 2.25 13.0625 C2.25773437 13.98611328 2.26546875 14.90972656 2.2734375 15.86132812 C2.27085937 16.74369141 2.26828125 17.62605469 2.265625 18.53515625 C2.26336914 19.343479 2.26111328 20.15180176 2.25878906 20.98461914 C2 23 2 23 0 25 C-0.97267984 22.08196048 -1.12881796 20.18599867 -1.1328125 17.1484375 C-1.13474609 15.74851563 -1.13474609 15.74851563 -1.13671875 14.3203125 C-1.13091797 12.86238281 -1.13091797 12.86238281 -1.125 11.375 C-1.12886719 10.3953125 -1.13273437 9.415625 -1.13671875 8.40625 C-1.13542969 7.47554687 -1.13414062 6.54484375 -1.1328125 5.5859375 C-1.13168457 4.7304834 -1.13055664 3.8750293 -1.12939453 2.99365234 C-1 1 -1 1 0 0 Z " fill="#513E68" transform="translate(406,200)"/>
<path d="M0 0 C2.375 0.6875 2.375 0.6875 5 2 C6.3125 4.625 6.3125 4.625 7 7 C4.68796073 9.31203927 4.06785625 9.27275091 0.9375 9.5 C-0.361875 9.665 -1.66125 9.83 -3 10 C-3.33 10.66 -3.66 11.32 -4 12 C-4 11.34 -4 10.68 -4 10 C-4.66 9.67 -5.32 9.34 -6 9 C-5.01 8.67 -4.02 8.34 -3 8 C-2.67 7.34 -2.34 6.68 -2 6 C-1.01 5.34 -0.02 4.68 1 4 C0.67 2.68 0.34 1.36 0 0 Z " fill="#725E8A" transform="translate(423,187)"/>
<path d="M0 0 C4.31392226 0.4793247 6.16569547 1.7457985 9 5 C6.69 5 4.38 5 2 5 C2.66 5.66 3.32 6.32 4 7 C2.33333333 8.66666667 0.66666667 10.33333333 -1 12 C-1.66 11.34 -2.32 10.68 -3 10 C-4.31747324 9.30251417 -5.64914193 8.63040043 -7 8 C-5.35 7.67 -3.7 7.34 -2 7 C-2 5.68 -2 4.36 -2 3 C-0.35 3 1.3 3 3 3 C3 2.34 3 1.68 3 1 C2.01 0.67 1.02 0.34 0 0 Z " fill="#77628F" transform="translate(258,176)"/>
<path d="M0 0 C0.66 0 1.32 0 2 0 C2 0.66 2 1.32 2 2 C2.66 2 3.32 2 4 2 C4.66 3.32 5.32 4.64 6 6 C5.34 6 4.68 6 4 6 C3.34 7.32 2.68 8.64 2 10 C0.68 9.67 -0.64 9.34 -2 9 C-1.67 8.34 -1.34 7.68 -1 7 C-1.99 6.67 -2.98 6.34 -4 6 C-3.67 5.34 -3.34 4.68 -3 4 C-2.34 4 -1.68 4 -1 4 C-0.67 2.68 -0.34 1.36 0 0 Z " fill="#604A7A" transform="translate(184,229)"/>
<path d="M0 0 C0.66 0.66 1.32 1.32 2 2 C2.66 1.67 3.32 1.34 4 1 C4.25 3.75 4.25 3.75 4 7 C2 9.375 2 9.375 0 11 C-0.33 9.35 -0.66 7.7 -1 6 C-2.98 6.99 -2.98 6.99 -5 8 C-5.36625971 3.48279689 -5.36625971 3.48279689 -3.625 1.1875 C-2 0 -2 0 0 0 Z " fill="#624B7C" transform="translate(202,208)"/>
<path d="M0 0 C0.33 0.99 0.66 1.98 1 3 C1.99 3.33 2.98 3.66 4 4 C6.26415094 9.20754717 6.26415094 9.20754717 5 13 C2.4375 14.1875 2.4375 14.1875 0 15 C0.20625 14.13375 0.4125 13.2675 0.625 12.375 C1.043032 8.61271197 0.25039358 6.51673193 -1 3 C-0.67 2.01 -0.34 1.02 0 0 Z " fill="#7C6993" transform="translate(194,249)"/>
<path d="M0 0 C3.14737182 0.69941596 6.02588876 1.76078698 9 3 C7 4 7 4 3 4 C3 5.32 3 6.64 3 8 C0.69 7.67 -1.62 7.34 -4 7 C-4.33 6.01 -4.66 5.02 -5 4 C-4.360625 3.71125 -3.72125 3.4225 -3.0625 3.125 C-0.84793921 2.17176549 -0.84793921 2.17176549 0 0 Z " fill="#725C89" transform="translate(202,242)"/>
<path d="M0 0 C3.25543229 0.34879632 4.01873107 1.02133261 6.25 3.5625 C6.8275 4.366875 7.405 5.17125 8 6 C7.01 6.495 7.01 6.495 6 7 C6 6.34 6 5.68 6 5 C5.608125 5.495 5.21625 5.99 4.8125 6.5 C2.44908285 8.45593143 0.98564997 8.24207973 -2 8 C-2.33 8.66 -2.66 9.32 -3 10 C-3.33 8.68 -3.66 7.36 -4 6 C-3.01 6 -2.02 6 -1 6 C-0.67 4.02 -0.34 2.04 0 0 Z " fill="#685485" transform="translate(134,223)"/>
<path d="M0 0 C-0.36881356 6.14689273 -1.90050429 8.69027374 -6 13 C-6.66 11.68 -7.32 10.36 -8 9 C-7.34 8.67 -6.68 8.34 -6 8 C-5.67 6.845 -5.34 5.69 -5 4.5 C-4.67 3.345 -4.34 2.19 -4 1 C-2 0 -2 0 0 0 Z " fill="#735F8B" transform="translate(203,219)"/>
<path d="M0 0 C0.598125 0.350625 1.19625 0.70125 1.8125 1.0625 C1.4825 2.3825 1.1525 3.7025 0.8125 5.0625 C0.1525 5.0625 -0.5075 5.0625 -1.1875 5.0625 C-1.1875 5.7225 -1.1875 6.3825 -1.1875 7.0625 C-2.1775 7.0625 -3.1675 7.0625 -4.1875 7.0625 C-5.25 4.6875 -5.25 4.6875 -6.1875 2.0625 C-4.66896708 -0.97456585 -3.05066334 -1.30742714 0 0 Z " fill="#634C80" transform="translate(216.1875,243.9375)"/>
<path d="M0 0 C0.33 0 0.66 0 1 0 C1 2.97 1 5.94 1 9 C2.093125 8.95875 3.18625 8.9175 4.3125 8.875 C8 9 8 9 11 11 C11.1875 14.125 11.1875 14.125 11 17 C10.67 17 10.34 17 10 17 C9.67 15.35 9.34 13.7 9 12 C6.03 12 3.06 12 0 12 C0 8.04 0 4.08 0 0 Z " fill="#857198" transform="translate(171,182)"/>
<path d="M0 0 C0.66 0.66 1.32 1.32 2 2 C1.67 2.66 1.34 3.32 1 4 C2.89179203 4.6814823 2.89179203 4.6814823 5 5 C5.66 4.34 6.32 3.68 7 3 C7 4.98 7 6.96 7 9 C5.02 9.66 3.04 10.32 1 11 C-0.28317892 7.15046324 -0.06643637 4.05261865 0 0 Z " fill="#634B7F" transform="translate(262,206)"/>
<path d="M0 0 C0.99 0.33 1.98 0.66 3 1 C5.06145107 1.068991 7.12501401 1.08467727 9.1875 1.0625 C10.27417969 1.05347656 11.36085937 1.04445313 12.48046875 1.03515625 C13.31191406 1.02355469 14.14335937 1.01195312 15 1 C15 1.66 15 2.32 15 3 C12.15161879 4.4241906 9.67212092 4.16995508 6.5 4.1875 C5.3346875 4.20167969 4.169375 4.21585937 2.96875 4.23046875 C0 4 0 4 -2 2 C-1.34 2 -0.68 2 0 2 C0 1.34 0 0.68 0 0 Z " fill="#817192" transform="translate(178,262)"/>
<path d="M0 0 C0.99 0.33 1.98 0.66 3 1 C3.33 3.31 3.66 5.62 4 8 C3.01 7.34 2.02 6.68 1 6 C0.34 6.66 -0.32 7.32 -1 8 C-3.125 7.625 -3.125 7.625 -5 7 C-5 6.34 -5 5.68 -5 5 C-4.34 5 -3.68 5 -3 5 C-3 4.34 -3 3.68 -3 3 C-1.5 1.375 -1.5 1.375 0 0 Z " fill="#634C7D" transform="translate(283,192)"/>
<path d="M0 0 C0.66 0 1.32 0 2 0 C2.66 1.98 3.32 3.96 4 6 C0.17679443 7.42258812 -2.91281305 8.24042276 -7 8 C-6.67 7.34 -6.34 6.68 -6 6 C-5.01 6.33 -4.02 6.66 -3 7 C-3 6.01 -3 5.02 -3 4 C-2.34 3.67 -1.68 3.34 -1 3 C-0.67 2.01 -0.34 1.02 0 0 Z " fill="#857498" transform="translate(350,194)"/>
<path d="M0 0 C-0.33 1.32 -0.66 2.64 -1 4 C-1.37125 3.505 -1.7425 3.01 -2.125 2.5 C-3.98842933 0.74235513 -3.98842933 0.74235513 -6.9375 0.625 C-10.24984673 1.03059348 -11.58330297 1.76920274 -14 4 C-14 2.68 -14 1.36 -14 0 C-8.71534278 -3.52310482 -5.16073843 -3.79466061 0 0 Z " fill="#7F6E92" transform="translate(343,196)"/>
<path d="M0 0 C0.66 0.33 1.32 0.66 2 1 C2.625 3.5625 2.625 3.5625 3 6 C0.36 6 -2.28 6 -5 6 C-5 5.34 -5 4.68 -5 4 C-3.35 3.34 -1.7 2.68 0 2 C0 1.34 0 0.68 0 0 Z M7 -1 C7 -0.34 7 0.32 7 1 C5.35 1 3.7 1 2 1 C5 -1 5 -1 7 -1 Z " fill="#624B7B" transform="translate(254,178)"/>
<path d="M0 0 C0.66 0.33 1.32 0.66 2 1 C2 2.65 2 4.3 2 6 C2.66 6.33 3.32 6.66 4 7 C2.02 7.66 0.04 8.32 -2 9 C-1.125 1.125 -1.125 1.125 0 0 Z M-5 9 C-4.01 9 -3.02 9 -2 9 C-2.33 9.66 -2.66 10.32 -3 11 C-3.66 10.34 -4.32 9.68 -5 9 Z " fill="#634C7B" transform="translate(179,193)"/>
<path d="M0 0 C0 0.99 0 1.98 0 3 C-1.32 3.33 -2.64 3.66 -4 4 C-4 4.66 -4 5.32 -4 6 C-4.99 6 -5.98 6 -7 6 C-7 6.66 -7 7.32 -7 8 C-5.02 8.495 -5.02 8.495 -3 9 C-4.32 9.33 -5.64 9.66 -7 10 C-7.33 8.35 -7.66 6.7 -8 5 C-6.68 4.34 -5.36 3.68 -4 3 C-4 2.34 -4 1.68 -4 1 C-2 0 -2 0 0 0 Z " fill="#81729B" transform="translate(204,235)"/>
<path d="M0 0 C-1.24976756 3.65316671 -1.67098753 4.78065836 -5 7 C-5.99 5.68 -6.98 4.36 -8 3 C-4.93882432 0.37613513 -4.26826873 0 0 0 Z " fill="#806F93" transform="translate(312,217)"/>
<path d="M0 0 C2.87579981 4.31369972 4 7.80734761 4 13 C3.01 12.67 2.02 12.34 1 12 C-0.67563646 7.64334521 -1.36503641 4.50462014 0 0 Z " fill="#7A668D" transform="translate(277,207)"/>
<path d="M0 0 C1.7290774 -0.02725341 3.45828176 -0.04650987 5.1875 -0.0625 C6.15042969 -0.07410156 7.11335937 -0.08570313 8.10546875 -0.09765625 C10.85576513 -0.00486622 13.32479591 0.37888315 16 1 C16 1.66 16 2.32 16 3 C10.22192976 3.2358396 5.48675196 2.86783046 0 1 C0 0.67 0 0.34 0 0 Z " fill="#726089" transform="translate(232,224)"/>
<path d="M0 0 C0.66 0.33 1.32 0.66 2 1 C2 4.3 2 7.6 2 11 C-0.64 11 -3.28 11 -6 11 C-6 10.67 -6 10.34 -6 10 C-4.35 9.67 -2.7 9.34 -1 9 C-0.67 6.03 -0.34 3.06 0 0 Z " fill="#553F6D" transform="translate(158,183)"/>
<path d="M0 0 C0 0.66 0 1.32 0 2 C-0.66 2 -1.32 2 -2 2 C-2 4.31 -2 6.62 -2 9 C-5 10 -5 10 -7.1875 9.0625 C-7.785625 8.711875 -8.38375 8.36125 -9 8 C-8.360625 7.5875 -7.72125 7.175 -7.0625 6.75 C-4.73907828 4.77861188 -4.57649237 3.88246184 -4 1 C-2 0 -2 0 0 0 Z " fill="#5C4972" transform="translate(182,149)"/>
<path d="M0 0 C9.59453303 2.70615034 9.59453303 2.70615034 13 7 C7.25 6.125 7.25 6.125 5 5 C5 4.34 5 3.68 5 3 C4.360625 2.87625 3.72125 2.7525 3.0625 2.625 C2.381875 2.41875 1.70125 2.2125 1 2 C0.67 1.34 0.34 0.68 0 0 Z " fill="#9484A3" transform="translate(132,233)"/>
<path d="M0 0 C0.33 0 0.66 0 1 0 C1.22134176 2.12368444 1.42670007 4.24904024 1.625 6.375 C1.74101562 7.55835938 1.85703125 8.74171875 1.9765625 9.9609375 C1.98429687 10.96382812 1.99203125 11.96671875 2 13 C1.34 13.66 0.68 14.32 0 15 C-1.62077189 9.38963576 -2.55579195 5.53754923 0 0 Z " fill="#5D4A73" transform="translate(285,201)"/>
<path d="M0 0 C1.98 0.495 1.98 0.495 4 1 C3.67 1.66 3.34 2.32 3 3 C3.99 3.33 4.98 3.66 6 4 C5.34 4 4.68 4 4 4 C3.67 4.99 3.34 5.98 3 7 C2.01 6.67 1.02 6.34 0 6 C-0.75 4.0625 -0.75 4.0625 -1 2 C-0.67 1.34 -0.34 0.68 0 0 Z " fill="#664D7E" transform="translate(461,189)"/>
<path d="M0 0 C0.99 0 1.98 0 3 0 C3.66 1.32 4.32 2.64 5 4 C4.34 4 3.68 4 3 4 C3 4.66 3 5.32 3 6 C0.525 5.01 0.525 5.01 -2 4 C-1.34 2.68 -0.68 1.36 0 0 Z " fill="#664F82" transform="translate(185,231)"/>
<path d="M0 0 C0.99 0 1.98 0 3 0 C3 2.97 3 5.94 3 9 C2.01 8.67 1.02 8.34 0 8 C0 5.36 0 2.72 0 0 Z " fill="#786889" transform="translate(157,206)"/>
<path d="M0 0 C0.99 0.33 1.98 0.66 3 1 C4.1875 3.5625 4.1875 3.5625 5 6 C4.34 6.66 3.68 7.32 3 8 C3 9.32 3 10.64 3 12 C2.34 12 1.68 12 1 12 C0.67 8.04 0.34 4.08 0 0 Z " fill="#78688D" transform="translate(310,195)"/>
<path d="M0 0 C2.475 0.495 2.475 0.495 5 1 C5 3.31 5 5.62 5 8 C4.01 7.34 3.02 6.68 2 6 C2 5.01 2 4.02 2 3 C1.34 3 0.68 3 0 3 C0 2.01 0 1.02 0 0 Z " fill="#645478" transform="translate(148,148)"/>
<path d="M0 0 C1.9375 0.3125 1.9375 0.3125 4 1 C4.33 1.99 4.66 2.98 5 4 C6.65 4.33 8.3 4.66 10 5 C10 5.33 10 5.66 10 6 C3.375 6.125 3.375 6.125 0 5 C-0.33 4.01 -0.66 3.02 -1 2 C-0.67 1.34 -0.34 0.68 0 0 Z " fill="#907EA4" transform="translate(329,222)"/>
<path d="M0 0 C2.475 0.495 2.475 0.495 5 1 C4.50168276 4.68754757 3.89932357 6.60490662 1 9 C0.375 7.1875 0.375 7.1875 0 5 C0.66 4.01 1.32 3.02 2 2 C1.34 1.34 0.68 0.68 0 0 Z " fill="#9E86AE" transform="translate(349,212)"/>
<path d="M0 0 C0.33 0 0.66 0 1 0 C1 3.3 1 6.6 1 10 C0.01 9.67 -0.98 9.34 -2 9 C-2 6.69 -2 4.38 -2 2 C-1.34 2 -0.68 2 0 2 C0 1.34 0 0.68 0 0 Z " fill="#605872" transform="translate(149,194)"/>
<path d="M0 0 C3.465 1.485 3.465 1.485 7 3 C6.34 4.65 5.68 6.3 5 8 C3 7 3 7 2 5 C2.33 4.34 2.66 3.68 3 3 C2.01 3 1.02 3 0 3 C0 2.01 0 1.02 0 0 Z " fill="#6F5C87" transform="translate(175,253)"/>
<path d="M0 0 C-1 3 -1 3 -3.0625 4.1875 C-3.701875 4.455625 -4.34125 4.72375 -5 5 C-5 4.01 -5 3.02 -5 2 C-7.31 2 -9.62 2 -12 2 C-12 1.67 -12 1.34 -12 1 C-10.37681021 0.63762737 -8.7513642 0.28534843 -7.125 -0.0625 C-6.22007812 -0.25972656 -5.31515625 -0.45695313 -4.3828125 -0.66015625 C-2 -1 -2 -1 0 0 Z " fill="#9688A7" transform="translate(184,230)"/>
<path d="M0 0 C2.66666667 2.66666667 5.33333333 5.33333333 8 8 C6.68 8.33 5.36 8.66 4 9 C3.67 8.01 3.34 7.02 3 6 C2.34 6 1.68 6 1 6 C1 5.34 1 4.68 1 4 C0.34 3.67 -0.32 3.34 -1 3 C-0.67 2.01 -0.34 1.02 0 0 Z " fill="#9075A1" transform="translate(445,210)"/>
<path d="M0 0 C2.97 0 5.94 0 9 0 C6 3 6 3 2.3125 3.1875 C0.6728125 3.0946875 0.6728125 3.0946875 -1 3 C-0.67 2.01 -0.34 1.02 0 0 Z " fill="#5F4A77" transform="translate(450,218)"/>
<path d="M0 0 C1.65 0 3.3 0 5 0 C4.01 0.495 4.01 0.495 3 1 C3 2.32 3 3.64 3 5 C1.02 5.33 -0.96 5.66 -3 6 C-2.01 4.02 -1.02 2.04 0 0 Z " fill="#897C9E" transform="translate(343,211)"/>
<path d="M0 0 C0.5775 0.28875 1.155 0.5775 1.75 0.875 C2.08 1.865 2.41 2.855 2.75 3.875 C1.76 3.875 0.77 3.875 -0.25 3.875 C-0.58 4.535 -0.91 5.195 -1.25 5.875 C-1.91 4.885 -2.57 3.895 -3.25 2.875 C-3.91 3.535 -4.57 4.195 -5.25 4.875 C-5.91 4.215 -6.57 3.555 -7.25 2.875 C-2.87962963 -0.15997942 -2.87962963 -0.15997942 0 0 Z " fill="#7F6C96" transform="translate(260.25,211.125)"/>
<path d="M0 0 C1.22589844 0.01353516 1.22589844 0.01353516 2.4765625 0.02734375 C3.41628906 0.04474609 3.41628906 0.04474609 4.375 0.0625 C4.705 0.7225 5.035 1.3825 5.375 2.0625 C4.26125 2.371875 3.1475 2.68125 2 3 C-1.4195155 3.88576483 -1.4195155 3.88576483 -3.625 5.0625 C-4.615 3.7425 -5.605 2.4225 -6.625 1.0625 C-4.21954362 -0.14022819 -2.67503047 -0.03821472 0 0 Z " fill="#7B6C8C" transform="translate(362.625,185.9375)"/>
<path d="M0 0 C0.33 0 0.66 0 1 0 C1 1.98 1 3.96 1 6 C1.99 6.33 2.98 6.66 4 7 C4 7.99 4 8.98 4 10 C2.68 10 1.36 10 0 10 C0 6.7 0 3.4 0 0 Z " fill="#5E4978" transform="translate(123,178)"/>
<path d="M0 0 C1.32 0.33 2.64 0.66 4 1 C4.33 3.31 4.66 5.62 5 8 C2.20127563 5.47211993 0.54226981 3.79588866 0 0 Z " fill="#847398" transform="translate(436,214)"/>
<path d="M0 0 C0.66 0.33 1.32 0.66 2 1 C2 1.66 2 2.32 2 3 C2.99 3 3.98 3 5 3 C5 3.66 5 4.32 5 5 C2.69 5 0.38 5 -2 5 C-1.34 3.35 -0.68 1.7 0 0 Z " fill="#5D4774" transform="translate(414,191)"/>
<path d="M0 0 C2.1640625 0.0234375 2.1640625 0.0234375 4.625 0.375 C5.85089844 0.54128906 5.85089844 0.54128906 7.1015625 0.7109375 C7.72804687 0.80632812 8.35453125 0.90171875 9 1 C9 1.66 9 2.32 9 3 C5.37 2.67 1.74 2.34 -2 2 C-1.34 1.34 -0.68 0.68 0 0 Z " fill="#6A577E" transform="translate(201,257)"/>
<path d="M0 0 C2 3 2 3 1.625 5.6875 C1.41875 6.450625 1.2125 7.21375 1 8 C0.01 8 -0.98 8 -2 8 C-1.125 1.125 -1.125 1.125 0 0 Z " fill="#8E7CA4" transform="translate(319,196)"/>
<path d="M0 0 C1.9375 0.3125 1.9375 0.3125 4 1 C4.33 1.99 4.66 2.98 5 4 C3.02 4.99 3.02 4.99 1 6 C0 3 0 3 0 0 Z " fill="#765E8E" transform="translate(191,229)"/>
<path d="M0 0 C1.5 1.375 1.5 1.375 3 3 C3 3.66 3 4.32 3 5 C1.35 5.33 -0.3 5.66 -2 6 C-2 3 -2 3 0 0 Z " fill="#735E8C" transform="translate(460,221)"/>
<path d="M0 0 C0.33 0.66 0.66 1.32 1 2 C1.66 2 2.32 2 3 2 C3.625 4.875 3.625 4.875 4 8 C3.34 8.66 2.68 9.32 2 10 C0.68373308 6.38026598 0 3.90432869 0 0 Z " fill="#9679A8" transform="translate(316,206)"/>
<path d="M0 0 C1.98 0.99 1.98 0.99 4 2 C3.67 3.98 3.34 5.96 3 8 C2.34 7.67 1.68 7.34 1 7 C0.59270772 4.67843403 0.25561323 2.3431213 0 0 Z " fill="#9988AB" transform="translate(160,244)"/>
<path d="M0 0 C2.31 0 4.62 0 7 0 C7.33 1.32 7.66 2.64 8 4 C4.31245243 3.50168276 2.39509338 2.89932357 0 0 Z " fill="#837495" transform="translate(283,223)"/>
<path d="M0 0 C0.99 0.33 1.98 0.66 3 1 C3.33 2.98 3.66 4.96 4 7 C2.68 6.34 1.36 5.68 0 5 C0 3.35 0 1.7 0 0 Z " fill="#8978A2" transform="translate(378,220)"/>
<path d="M0 0 C1.485 0.99 1.485 0.99 3 2 C3.375 4.5 3.375 4.5 3 7 C2.01 7.66 1.02 8.32 0 9 C0 6.03 0 3.06 0 0 Z " fill="#62428D" transform="translate(420,197)"/>
<path d="M0 0 C4.31392226 0.4793247 6.16569547 1.7457985 9 5 C6.03 4.505 6.03 4.505 3 4 C3 3.01 3 2.02 3 1 C2.01 0.67 1.02 0.34 0 0 Z " fill="#887A99" transform="translate(258,176)"/>
<path d="M0 0 C2.4375 0.25 2.4375 0.25 5 1 C5.66 1.99 6.32 2.98 7 4 C5.35 4 3.7 4 2 4 C2 3.34 2 2.68 2 2 C1.01 1.67 0.02 1.34 -1 1 C-0.67 0.67 -0.34 0.34 0 0 Z " fill="#7F6C93" transform="translate(209,235)"/>
<path d="M0 0 C1.32 0.33 2.64 0.66 4 1 C4.33 2.65 4.66 4.3 5 6 C3.0625 5.25 3.0625 5.25 1 4 C0.25 1.875 0.25 1.875 0 0 Z " fill="#87739B" transform="translate(358,219)"/>
<path d="M0 0 C-0.33 0.99 -0.66 1.98 -1 3 C-3.64 2.67 -6.28 2.34 -9 2 C-9 1.67 -9 1.34 -9 1 C-2.25 -1.125 -2.25 -1.125 0 0 Z " fill="#5B4671" transform="translate(381,217)"/>
<path d="M0 0 C0.95465783 2.16967689 1.14401212 3.56328793 0.3984375 5.82421875 C-0.35870385 7.5684743 -1.17609198 9.28627131 -2 11 C-2.33 11 -2.66 11 -3 11 C-3.32613618 6.32538149 -2.70582788 3.83325617 0 0 Z " fill="#90809E" transform="translate(206,212)"/>
<path d="M0 0 C0 1.65 0 3.3 0 5 C-1.32 5 -2.64 5 -4 5 C-4 3.68 -4 2.36 -4 1 C-1 0 -1 0 0 0 Z " fill="#634C7D" transform="translate(439,204)"/>
<path d="M0 0 C0.33 1.32 0.66 2.64 1 4 C1.66 3.34 2.32 2.68 3 2 C3.33 2.99 3.66 3.98 4 5 C2.35 5.33 0.7 5.66 -1 6 C-0.67 4.02 -0.34 2.04 0 0 Z " fill="#806D95" transform="translate(436,197)"/>
<path d="" fill="#000000" transform="translate(0,0)"/>
</svg>
