<?xml version="1.0" encoding="UTF-8"?>
<svg version="1.1" xmlns="http://www.w3.org/2000/svg" width="368" height="135">
<path d="M0 0 C2.375 0.6875 2.375 0.6875 3.375 1.6875 C3.375 3.9975 3.375 6.3075 3.375 8.6875 C10.965 8.6875 18.555 8.6875 26.375 8.6875 C26.705 6.3775 27.035 4.0675 27.375 1.6875 C29.1875 0.1875 29.1875 0.1875 31.375 -0.3125 C33.68297001 0.02690736 35.29010461 0.64505231 37.375 1.6875 C37.375 3.9975 37.375 6.3075 37.375 8.6875 C38.46167969 8.63529297 38.46167969 8.63529297 39.5703125 8.58203125 C49.88576272 8.29319864 49.88576272 8.29319864 54.375 11.6875 C59.73915996 18.06650104 59.22672632 25.68583407 59.375 33.6875 C59.39546387 34.51749512 59.41592773 35.34749023 59.43701172 36.20263672 C59.83842729 54.12036804 60.21296743 71.0907241 47.17578125 84.9375 C40.17099823 91.74475117 32.02010988 94.83477598 22.125 94.875 C20.76375 94.7821875 20.76375 94.7821875 19.375 94.6875 C22.32577974 101.48703532 22.32577974 101.48703532 27.375 106.6875 C31.57140155 108.22805277 35.29260464 108.76767743 39.75 108.4375 C43.96194222 105.62953852 44.27141022 101.42995336 45.375 96.6875 C46.375 93.625 46.375 93.625 47.375 91.6875 C48.365 91.3575 49.355 91.0275 50.375 90.6875 C50.375 90.0275 50.375 89.3675 50.375 88.6875 C55.75759748 86.71021929 58.90968237 86.25846994 64.375 88.6875 C67.88715847 91.94620374 70.22470214 95.12440229 70.6875 99.9375 C70.25292077 105.15245082 68.00677212 108.05572788 64.375 111.6875 C62.1328125 112.13671875 62.1328125 112.13671875 59.5 112.375 C58.63632813 112.46136719 57.77265625 112.54773438 56.8828125 112.63671875 C54.48502241 112.68527213 52.65378559 112.39233368 50.375 111.6875 C49.88 113.1725 49.88 113.1725 49.375 114.6875 C42.65844253 119.20825984 36.34107232 119.67330145 28.375 118.6875 C21.07824019 116.50081076 16.4240729 111.67876382 12.5625 105.25 C10.60296805 101.58812466 9.8344831 98.90353183 10.375 94.6875 C9.1375 94.749375 7.9 94.81125 6.625 94.875 C0.18721184 94.89546991 -6.83472707 93.58263646 -12.625 90.6875 C-12.625 90.0275 -12.625 89.3675 -12.625 88.6875 C-13.21152344 88.5946875 -13.79804688 88.501875 -14.40234375 88.40625 C-17.1595922 87.5146266 -18.27224003 86.34698775 -20.1875 84.1875 C-21.05568359 83.24390625 -21.05568359 83.24390625 -21.94140625 82.28125 C-26.72560699 74.9106948 -27.07199741 67.21801362 -27.0234375 58.64453125 C-27.02630768 57.51730148 -27.02917786 56.39007172 -27.03213501 55.22868347 C-27.03416636 52.85956313 -27.02870193 50.49042566 -27.01611328 48.12133789 C-27.00000193 44.50043307 -27.01601768 40.88063678 -27.03515625 37.25976562 C-27.03317454 34.95051838 -27.02933235 32.64127182 -27.0234375 30.33203125 C-27.02951019 29.25379593 -27.03558289 28.17556061 -27.0418396 27.06465149 C-26.99015856 21.53623841 -26.81031678 17.42533616 -23.625 12.6875 C-19.67415208 8.83795587 -16.57000688 8.45003241 -11.25 8.4375 C-9.37423698 8.5013946 -7.49867462 8.57835391 -5.625 8.6875 C-5.686875 7.57375 -5.74875 6.46 -5.8125 5.3125 C-5.7196875 3.518125 -5.7196875 3.518125 -5.625 1.6875 C-2.625 -0.3125 -2.625 -0.3125 0 0 Z M-16.625 20.6875 C-16.73376242 22.18997887 -16.7740346 23.6974957 -16.78613281 25.20385742 C-16.79574036 26.16543259 -16.8053479 27.12700775 -16.81524658 28.11772156 C-16.81949646 29.16555313 -16.82374634 30.2133847 -16.828125 31.29296875 C-16.83382507 32.36492996 -16.83952515 33.43689117 -16.84539795 34.54133606 C-16.85486707 36.81701668 -16.86138948 39.09271113 -16.86523438 41.3684082 C-16.87491048 44.84285684 -16.90590415 48.31670675 -16.9375 51.79101562 C-16.94403269 53.99999648 -16.94928212 56.20898158 -16.953125 58.41796875 C-16.9654718 59.45567917 -16.9778186 60.49338959 -16.99053955 61.56254578 C-16.96895881 68.59051602 -16.02745353 72.96893417 -11.25 78.375 C-6.10805583 82.90480796 -2.18431883 84.16784115 4.625 84.375 C5.76497437 84.42297729 5.76497437 84.42297729 6.92797852 84.47192383 C9.07677401 84.5573232 11.22548078 84.62357378 13.375 84.6875 C14.28636719 84.72875 15.19773437 84.77 16.13671875 84.8125 C23.7880076 85.03228568 31.87609863 83.91934275 38.375 79.6875 C41.0943624 76.80766338 41.0943624 76.80766338 43.375 73.6875 C44.2103125 72.6975 44.2103125 72.6975 45.0625 71.6875 C48.71610445 66.12010274 48.67007924 60.39734026 48.640625 53.984375 C48.64253845 53.06537415 48.6444519 52.14637329 48.64642334 51.19952393 C48.64777929 49.26647669 48.64412424 47.33342016 48.63574219 45.40039062 C48.62498509 42.43338814 48.63568261 39.46698438 48.6484375 36.5 C48.64711676 34.61979033 48.64455615 32.73958103 48.640625 30.859375 C48.64467346 29.96982117 48.64872192 29.08026733 48.65289307 28.16375732 C48.84943955 23.44157716 48.84943955 23.44157716 46.375 19.6875 C44.16427023 19.44496187 44.16427023 19.44496187 41.75 19.5625 C40.52410156 19.58957031 40.52410156 19.58957031 39.2734375 19.6171875 C38.33371094 19.65199219 38.33371094 19.65199219 37.375 19.6875 C36.715 21.3375 36.055 22.9875 35.375 24.6875 C33.395 24.6875 31.415 24.6875 29.375 24.6875 C28.941875 23.7284375 28.941875 23.7284375 28.5 22.75 C27.54676549 20.53543921 27.54676549 20.53543921 25.375 19.6875 C23.7075394 19.60323906 22.03674813 19.58024857 20.3671875 19.58984375 C19.38105469 19.59306641 18.39492188 19.59628906 17.37890625 19.59960938 C15.83009766 19.61217773 15.83009766 19.61217773 14.25 19.625 C13.20972656 19.62951172 12.16945313 19.63402344 11.09765625 19.63867188 C8.52338038 19.65048048 5.94921854 19.66694925 3.375 19.6875 C3.045 21.3375 2.715 22.9875 2.375 24.6875 C0.395 24.6875 -1.585 24.6875 -3.625 24.6875 C-4.285 23.0375 -4.945 21.3875 -5.625 19.6875 C-7.27074566 19.66061849 -8.91661413 19.64115877 -10.5625 19.625 C-11.93728516 19.60759766 -11.93728516 19.60759766 -13.33984375 19.58984375 C-15.59093327 19.42800951 -15.59093327 19.42800951 -16.625 20.6875 Z M55.375 97.6875 C55.045 99.0075 54.715 100.3275 54.375 101.6875 C56.355 102.6775 56.355 102.6775 58.375 103.6875 C59.035 103.0275 59.695 102.3675 60.375 101.6875 C60.0564823 99.57929203 60.0564823 99.57929203 59.375 97.6875 C58.055 97.6875 56.735 97.6875 55.375 97.6875 Z " fill="#6A5384" transform="translate(39.625,8.3125)"/>
<path d="M0 0 C1.051875 0.0103125 2.10375 0.020625 3.1875 0.03125 C11.28984377 0.29196898 18.57701284 1.88539608 24.44091797 7.84887695 C30.80301751 15.60673307 31.27555596 24.16879961 30.5 33.875 C29.16235353 40.12345818 26.94257209 45.79881372 22 50 C10.29265519 56.27179186 0.50968145 54.875 -13.5 54.875 C-13.5 37.055 -13.5 19.235 -13.5 0.875 C-9.4898837 -1.13005815 -4.39209259 -0.13594572 0 0 Z M-2.5 11.875 C-2.52469575 15.96841499 -2.54285793 20.06180121 -2.55493164 24.15527344 C-2.5599643 25.54818477 -2.56679098 26.9410908 -2.57543945 28.33398438 C-2.58755152 30.33461246 -2.59270412 32.33527888 -2.59765625 34.3359375 C-2.60289307 35.54040527 -2.60812988 36.74487305 -2.61352539 37.98583984 C-2.70087891 40.8163677 -2.70087891 40.8163677 -1.5 42.875 C6.49301398 43.40230188 6.49301398 43.40230188 14.0625 41.25 C18.4601545 36.96510588 19.67793852 33.42642948 19.875 27.375 C19.73973962 22.84992538 19.15224226 19.66391752 16.5 15.875 C12.31003391 11.9553543 8.31910082 11.74620118 2.75 11.8125 C1.76515625 11.82152344 0.7803125 11.83054687 -0.234375 11.83984375 C-1.35585937 11.85724609 -1.35585937 11.85724609 -2.5 11.875 Z " fill="#6F5888" transform="translate(132.5,33.125)"/>
<path d="M0 0 C4.34032429 5.20838915 5.12564733 9.22158296 5.09765625 15.85546875 C5.0962413 16.51710526 5.09482635 17.17874176 5.09336853 17.86042786 C5.08777996 19.96949828 5.07522965 22.07846177 5.0625 24.1875 C5.05748352 25.61913909 5.05292087 27.05077985 5.04882812 28.48242188 C5.0378143 31.98831588 5.02055755 35.4941475 5 39 C1.37 39 -2.26 39 -6 39 C-6.89662007 29.00909069 -7.47695235 19.01580608 -8 9 C-12.57768074 8.55566661 -12.57768074 8.55566661 -16.70068359 10.14013672 C-18.535284 12.76621449 -18.41741168 14.76030553 -18.4765625 17.9453125 C-18.52296875 19.68361328 -18.52296875 19.68361328 -18.5703125 21.45703125 C-18.58835937 22.66746094 -18.60640625 23.87789062 -18.625 25.125 C-18.67576241 27.52352378 -18.73024035 29.92197284 -18.7890625 32.3203125 C-18.80662598 33.38523926 -18.82418945 34.45016602 -18.84228516 35.54736328 C-19 38 -19 38 -20 39 C-21.66429051 39.09823937 -23.33281931 39.12973631 -25 39.125 C-26.36125 39.12886719 -26.36125 39.12886719 -27.75 39.1328125 C-30 39 -30 39 -31 38 C-31.08865208 35.1156618 -31.11521296 32.25537842 -31.09765625 29.37109375 C-31.0962413 28.50686295 -31.09482635 27.64263214 -31.09336853 26.75221252 C-31.08775239 23.98060708 -31.07519719 21.2090812 -31.0625 18.4375 C-31.05748708 16.5631522 -31.05292381 14.68880315 -31.04882812 12.81445312 C-31.03777772 8.20960456 -31.0205023 3.60481579 -31 -1 C-29.25093341 -1.19601608 -27.50068154 -1.38147403 -25.75 -1.5625 C-24.77546875 -1.66691406 -23.8009375 -1.77132812 -22.796875 -1.87890625 C-20 -2 -20 -2 -17.83984375 -1.45703125 C-15.7511962 -0.75902511 -15.7511962 -0.75902511 -12.8125 -2.125 C-7.81928325 -3.27098417 -4.45386949 -2.48107237 0 0 Z " fill="#776190" transform="translate(317,49)"/>
<path d="M0 0 C1.20849609 -0.00386719 1.20849609 -0.00386719 2.44140625 -0.0078125 C4.4375 0.125 4.4375 0.125 5.4375 1.125 C5.59608842 3.26886657 5.68879298 5.41766838 5.75390625 7.56640625 C5.81674805 9.52416992 5.81674805 9.52416992 5.88085938 11.52148438 C5.92067608 12.9101533 5.96038825 14.29882522 6 15.6875 C6.04317989 17.08009183 6.086794 18.47267028 6.13085938 19.86523438 C6.23735876 23.28504801 6.33936923 26.70493763 6.4375 30.125 C8.3246875 30.1559375 8.3246875 30.1559375 10.25 30.1875 C10.95769531 30.19910156 11.66539062 30.21070312 12.39453125 30.22265625 C14.64055461 30.20763217 14.64055461 30.20763217 17.4375 29.125 C17.42178955 28.31756348 17.4060791 27.51012695 17.38989258 26.67822266 C17.32770321 23.03555244 17.28855991 19.39299366 17.25 15.75 C17.22486328 14.47898437 17.19972656 13.20796875 17.17382812 11.8984375 C17.16416016 10.68671875 17.15449219 9.475 17.14453125 8.2265625 C17.1288208 7.10588379 17.11311035 5.98520508 17.09692383 4.83056641 C17.20931396 3.93772949 17.3217041 3.04489258 17.4375 2.125 C21.10615241 -0.32076827 23.10950343 -0.11107254 27.4375 0.125 C28.0975 0.455 28.7575 0.785 29.4375 1.125 C29.4375 14.325 29.4375 27.525 29.4375 41.125 C18.4375 41.125 18.4375 41.125 16.4375 40.125 C15.90125 40.434375 15.365 40.74375 14.8125 41.0625 C10.74696725 42.88129097 6.6901189 42.84401775 2.50390625 41.5078125 C-1.5844686 39.5207744 -3.7999732 36.90831989 -5.76855469 32.75976562 C-7.48776393 27.05444392 -6.96270712 21.02351806 -6.8125 15.125 C-6.79239985 13.76434927 -6.77415529 12.4036698 -6.7578125 11.04296875 C-6.7109085 7.736237 -6.64527725 4.43099584 -6.5625 1.125 C-4.1828388 -0.0648306 -2.64764265 -0.00849966 0 0 Z " fill="#725D89" transform="translate(252.5625,46.875)"/>
<path d="M0 0 C4.98845383 3.68195402 8.78294132 7.94212034 10.625 13.9375 C11.0782683 21.75637815 10.39719668 28.85874493 5.4921875 35.16015625 C1.28323434 39.16658656 -3.66709128 41.06338706 -9.4375 41.4375 C-15.42808907 40.67679028 -19.41811407 38.41603604 -24.1875 34.8125 C-28.1421192 29.61500048 -29.78519554 23.77269558 -29.25 17.25 C-28.05108312 10.15640848 -25.61953031 5.63367179 -20.09375 1.1015625 C-14.56066922 -2.64584221 -6.0972437 -1.91950265 0 0 Z M-17.375 12.9375 C-18.37132931 18.61818405 -18.50119088 23.296479 -15.1875 28.125 C-12.32813366 29.96770275 -10.76964825 30.9375 -7.375 30.9375 C-3.94862403 29.58288624 -2.68411876 28.54168666 -1 25.25 C-0.23619164 21.20181569 -0.12605156 17.88709668 -1.375 13.9375 C-3.85854681 10.53149295 -5.21110681 9.15572997 -9.375 8.375 C-13.39138711 9.12807258 -14.84053184 9.65760003 -17.375 12.9375 Z " fill="#705B89" transform="translate(194.375,48.0625)"/>
<path d="M0 0 C5.78069334 3.49250223 7.79851665 7.78206106 9.52734375 14.12109375 C10.69813026 20.78780371 9.71437464 27.1082818 6 32.8125 C1.51972547 38.16393902 -3.0030286 40.47950318 -9.9375 41.25 C-15.20848783 41.01505287 -19.71584649 38.9752175 -23.54296875 35.3515625 C-29.0247193 29.01780967 -29.60323309 23.73612569 -29.390625 15.53125 C-28.868952 10.56492306 -27.33513182 7.45765816 -24 3.8125 C-23.32904297 3.03132813 -23.32904297 3.03132813 -22.64453125 2.234375 C-16.83372043 -2.78969897 -6.91046146 -2.63255675 0 0 Z M-15.3125 10.5 C-17.88816253 14.02961162 -19.08927748 16.38406038 -18.8125 20.8125 C-17.93365496 24.05746629 -17.11312488 26.18931049 -15 28.8125 C-12.19103937 30.471096 -12.19103937 30.471096 -9 30.8125 C-6.07121816 29.48123553 -4.26695035 28.07945035 -2 25.8125 C-0.7758441 19.69172052 -0.73039864 15.3960811 -4.1875 9.9375 C-7.96437293 7.59323404 -11.80374405 7.93955647 -15.3125 10.5 Z " fill="#6A5483" transform="translate(354,48.1875)"/>
<path d="M0 0 C2.69030603 2.81841585 4.27649546 5.10110535 5.625 8.75 C5.295 9.74 4.965 10.73 4.625 11.75 C1.325 12.08 -1.975 12.41 -5.375 12.75 C-6.035 11.43 -6.695 10.11 -7.375 8.75 C-10.17370027 7.35064987 -12.27998792 7.49734595 -15.375 7.75 C-17.93449546 9.60342775 -18.35418798 10.68756393 -19.375 13.75 C-19.92214691 20.15997244 -19.92214691 20.15997244 -17.375 25.75 C-14.60056523 27.34152808 -14.60056523 27.34152808 -11.375 27.75 C-8.51811671 26.7029689 -8.51811671 26.7029689 -6.375 24.75 C-6.045 23.76 -5.715 22.77 -5.375 21.75 C-2.075 22.08 1.225 22.41 4.625 22.75 C5.625 26.75 5.625 26.75 4.91015625 28.75 C1.71203394 33.98143331 -1.40076974 37.03079705 -7.375 38.75 C-12.92737453 39.68186705 -17.63177068 38.93137459 -22.5234375 36.125 C-29.78473123 30.73264685 -31.86397316 23.36550392 -33.375 14.75 C-33.375 14.09 -33.375 13.43 -33.375 12.75 C-32.715 12.75 -32.055 12.75 -31.375 12.75 C-31.33375 12.09 -31.2925 11.43 -31.25 10.75 C-29.62883385 5.19171607 -26.21336046 0.93727446 -21.375 -2.1875 C-13.95827531 -4.81425666 -6.49582761 -5.0092203 0 0 Z " fill="#695282" transform="translate(238.375,50.25)"/>
<path d="M0 0 C0.78503906 0.00386719 1.57007812 0.00773437 2.37890625 0.01171875 C4.4375 0.3125 4.4375 0.3125 6.4375 2.3125 C6.6328125 4.4765625 6.6328125 4.4765625 6.5625 6.9375 C6.54445313 7.75476562 6.52640625 8.57203125 6.5078125 9.4140625 C6.48460938 10.04054688 6.46140625 10.66703125 6.4375 11.3125 C7.530625 11.27125 8.62375 11.23 9.75 11.1875 C13.4375 11.3125 13.4375 11.3125 16.4375 13.3125 C17.42265378 15.93606462 17.85988929 18.55774123 18.4375 21.3125 C17.7775 21.3125 17.1175 21.3125 16.4375 21.3125 C16.458125 22.116875 16.47875 22.92125 16.5 23.75 C16.4375 26.3125 16.4375 26.3125 15.4375 27.3125 C13.91821962 27.38429964 12.39582518 27.39642007 10.875 27.375 C10.04871094 27.36597656 9.22242187 27.35695313 8.37109375 27.34765625 C7.41396484 27.33025391 7.41396484 27.33025391 6.4375 27.3125 C6.46070312 27.93898438 6.48390625 28.56546875 6.5078125 29.2109375 C6.53488281 30.43683594 6.53488281 30.43683594 6.5625 31.6875 C6.58570312 32.49960938 6.60890625 33.31171875 6.6328125 34.1484375 C6.4375 36.3125 6.4375 36.3125 4.4375 38.3125 C2.16015625 38.6484375 2.16015625 38.6484375 -0.5 38.6875 C-1.81291016 38.73003906 -1.81291016 38.73003906 -3.15234375 38.7734375 C-5.5625 38.3125 -5.5625 38.3125 -7.3671875 36.5234375 C-9.04756406 33.41529 -8.76267212 30.78215003 -8.5625 27.3125 C-11.2025 27.3125 -13.8425 27.3125 -16.5625 27.3125 C-18.88840854 23.67826791 -18.72515833 20.54161669 -18.5625 16.3125 C-17.9025 16.3125 -17.2425 16.3125 -16.5625 16.3125 C-16.5625 14.9925 -16.5625 13.6725 -16.5625 12.3125 C-13.9225 11.9825 -11.2825 11.6525 -8.5625 11.3125 C-8.4078125 9.4253125 -8.4078125 9.4253125 -8.25 7.5 C-8.0432183 4.97726323 -7.79613473 3.63610587 -6.3046875 1.5703125 C-4.07233197 -0.04138813 -2.73105131 -0.05849039 0 0 Z " fill="#685182" transform="translate(55.5625,40.6875)"/>
<path d="M0 0 C1 3 1 3 0.9375 6.9375 C0.88125005 11.29869698 0.88125005 11.29869698 3 15 C5.77443477 16.59152808 5.77443477 16.59152808 9 17 C11.85688329 15.9529689 11.85688329 15.9529689 14 14 C14.33 13.01 14.66 12.02 15 11 C18.3 11.33 21.6 11.66 25 12 C26 16 26 16 25.28515625 18 C22.08703394 23.23143331 18.97423026 26.28079705 13 28 C7.44717989 28.93194184 2.75528056 28.17403685 -2.14453125 25.38671875 C-7.95294985 21.04569011 -10.56271226 15.71445431 -11.7734375 8.6875 C-11.84820312 8.130625 -11.92296875 7.57375 -12 7 C-7.25 7.875 -7.25 7.875 -5 9 C-5 9.66 -5 10.32 -5 11 C-4.34 11 -3.68 11 -3 11 C-2.34 8.69 -1.68 6.38 -1 4 C-1.66 3.67 -2.32 3.34 -3 3 C-2.01 2.01 -1.02 1.02 0 0 Z " fill="#705A89" transform="translate(218,61)"/>
<path d="M0 0 C-0.33 1.32 -0.66 2.64 -1 4 C-1.99 4 -2.98 4 -4 4 C-4.99 5.485 -4.99 5.485 -6 7 C-3.70370006 8.14814997 -1.92301914 8.30769809 0.625 8.5625 C1.44226563 8.64628906 2.25953125 8.73007812 3.1015625 8.81640625 C3.72804688 8.87699219 4.35453125 8.93757813 5 9 C5 9.33 5 9.66 5 10 C3.741875 10.185625 2.48375 10.37125 1.1875 10.5625 C-2.53905206 11.49413802 -2.85578608 11.77275382 -5.0625 15.25 C-6.22627108 19.90508432 -5.83332267 22.75643898 -4.1875 27.1875 C-2.7636592 29.3607307 -1.14873015 30.56751324 1 32 C0.01 32 -0.98 32 -2 32 C-2 32.66 -2 33.32 -2 34 C-1.01 34.33 -0.02 34.66 1 35 C0.67 36.65 0.34 38.3 0 40 C1.65 40.33 3.3 40.66 5 41 C5 41.33 5 41.66 5 42 C-0.95364908 42.49613742 -5.04174126 41.39578225 -10 38 C-14.07079538 34.15535992 -16.75933912 30.19888049 -17.37109375 24.609375 C-17.52520964 15.65252225 -16.71106758 10.06318345 -10.484375 3.37109375 C-7.29109104 0.42150778 -4.25174215 0 0 0 Z " fill="#6B5583" transform="translate(342,47)"/>
<path d="M0 0 C0.66 0 1.32 0 2 0 C6.13942774 48.12084742 6.13942774 48.12084742 -7.625 64.5625 C-9.85604771 67.07116677 -10.74367029 67.91455676 -14 69 C-17.1875 67.1875 -17.1875 67.1875 -20 65 C-20 64.34 -20 63.68 -20 63 C-20.66 62.67 -21.32 62.34 -22 62 C-21.38125 61.9175 -20.7625 61.835 -20.125 61.75 C-17.81562433 61.18741541 -17.81562433 61.18741541 -16.75 58.9375 C-16.5025 58.298125 -16.255 57.65875 -16 57 C-15.34 57 -14.68 57 -14 57 C-13.731875 56.319375 -13.46375 55.63875 -13.1875 54.9375 C-12 52 -12 52 -10.45776367 48.89233398 C-8.60099236 44.54964566 -8.5248217 40.45683368 -8.48828125 35.78515625 C-8.47033005 34.92941513 -8.45237885 34.07367401 -8.43388367 33.19200134 C-8.38007969 30.48221639 -8.34598187 27.7726045 -8.3125 25.0625 C-8.27930044 23.21547086 -8.24480836 21.36846448 -8.20898438 19.52148438 C-8.12437078 15.01444842 -8.05741787 10.50746112 -8 6 C-7.67 6 -7.34 6 -7 6 C-7 17.88 -7 29.76 -7 42 C-6.01 42 -5.02 42 -4 42 C-3.34 42.66 -2.68 43.32 -2 44 C-1.01 43.505 -1.01 43.505 0 43 C0 28.81 0 14.62 0 0 Z " fill="#715C8A" transform="translate(96,27)"/>
<path d="M0 0 C0.70125 0.01417969 1.4025 0.02835938 2.125 0.04296875 C3.176875 0.05263672 3.176875 0.05263672 4.25 0.0625 C6.125 0.23046875 6.125 0.23046875 8.125 1.23046875 C8.125 14.43046875 8.125 27.63046875 8.125 41.23046875 C5.155 41.23046875 2.185 41.23046875 -0.875 41.23046875 C-0.875 40.90046875 -0.875 40.57046875 -0.875 40.23046875 C1.765 40.23046875 4.405 40.23046875 7.125 40.23046875 C5.96122098 38.84904319 5.96122098 38.84904319 2.75 38.98046875 C-0.875 38.23046875 -0.875 38.23046875 -2.75 35.79296875 C-3.12125 34.94734375 -3.4925 34.10171875 -3.875 33.23046875 C-4.70833333 31.06380208 -4.70833333 31.06380208 -6.875 30.23046875 C-5.885 29.90046875 -4.895 29.57046875 -3.875 29.23046875 C-3.88547363 28.42303223 -3.89594727 27.6155957 -3.90673828 26.78369141 C-3.94819831 23.14098193 -3.97429438 19.498322 -4 15.85546875 C-4.01675781 14.58445312 -4.03351563 13.3134375 -4.05078125 12.00390625 C-4.05722656 10.7921875 -4.06367188 9.58046875 -4.0703125 8.33203125 C-4.08602295 6.65101318 -4.08602295 6.65101318 -4.10205078 4.93603516 C-3.8386525 1.7973473 -3.29857913 0.40545035 0 0 Z " fill="#796392" transform="translate(273.875,46.76953125)"/>
<path d="M0 0 C5.7575987 -0.34545592 10.08040341 -0.38905543 15 3 C18.69074491 6.58453643 21.48026443 10.02028392 23 15 C22.9765625 17.89453125 22.9765625 17.89453125 22.625 20.8125 C22.51414063 21.78832031 22.40328125 22.76414062 22.2890625 23.76953125 C22.14597656 24.87361328 22.14597656 24.87361328 22 26 C20 25 20 25 18 23 C17.67 23.66 17.34 24.32 17 25 C16.67 24.34 16.34 23.68 16 23 C15.34 23.99 14.68 24.98 14 26 C13.34 26 12.68 26 12 26 C11.90203125 25.25234375 11.8040625 24.5046875 11.703125 23.734375 C10.73190784 16.40791553 10.73190784 16.40791553 6 11 C6 10.34 6 9.68 6 9 C4.02 9 2.04 9 0 9 C-1.125 6.75 -1.125 6.75 -2 4 C-1.0546875 1.828125 -1.0546875 1.828125 0 0 Z " fill="#6D5786" transform="translate(182,47)"/>
<path d="M0 0 C1.20849609 -0.00386719 1.20849609 -0.00386719 2.44140625 -0.0078125 C4.4375 0.125 4.4375 0.125 5.4375 1.125 C5.51069621 3.82154854 5.52992537 6.49191458 5.5 9.1875 C5.49548828 9.94611328 5.49097656 10.70472656 5.48632812 11.48632812 C5.4745068 13.36591871 5.45657078 15.24546899 5.4375 17.125 C4.7775 17.125 4.1175 17.125 3.4375 17.125 C3.458125 18.40375 3.47875 19.6825 3.5 21 C3.5625 24.875 3.5625 24.875 2.4375 27.125 C1.7775 27.125 1.1175 27.125 0.4375 27.125 C0.1075 27.785 -0.2225 28.445 -0.5625 29.125 C-0.8925 27.805 -1.2225 26.485 -1.5625 25.125 C-2.2225 25.125 -2.8825 25.125 -3.5625 25.125 C-3.8925 26.445 -4.2225 27.765 -4.5625 29.125 C-5.2225 29.125 -5.8825 29.125 -6.5625 29.125 C-6.5625 19.885 -6.5625 10.645 -6.5625 1.125 C-4.1828388 -0.0648306 -2.64764265 -0.00849966 0 0 Z " fill="#553F80" transform="translate(252.5625,46.875)"/>
<path d="M0 0 C-0.185625 0.7425 -0.37125 1.485 -0.5625 2.25 C-0.99203108 4.94990963 -0.85122974 6.44631077 0 9 C1.98 9 3.96 9 6 9 C6 9.33 6 9.66 6 10 C2.97265625 10.68359375 2.97265625 10.68359375 -0.0546875 11.3671875 C-2.20719964 11.90474428 -2.20719964 11.90474428 -4 14 C-4.46290221 16.66242821 -4.46290221 16.66242821 -4.625 19.625 C-4.69976562 20.62789062 -4.77453125 21.63078125 -4.8515625 22.6640625 C-4.90054688 23.43492188 -4.94953125 24.20578125 -5 25 C-5.33 25 -5.66 25 -6 25 C-6.33 23.02 -6.66 21.04 -7 19 C-10.63433869 20.77524749 -10.63433869 20.77524749 -12.9375 23.9375 C-13.01477438 26.48755447 -12.21335289 27.78741531 -11 30 C-11 30.99 -11 31.98 -11 33 C-10.34 33.33 -9.68 33.66 -9 34 C-10.65 33.67 -12.3 33.34 -14 33 C-17.08208588 24.65921391 -17.46250589 18.79376931 -14.875 10.3125 C-11.60060504 4.52773557 -6.94295236 0 0 0 Z " fill="#766292" transform="translate(182,47)"/>
<path d="M0 0 C0.33 0 0.66 0 1 0 C1.02505615 0.63091553 1.0501123 1.26183105 1.07592773 1.91186523 C1.19154137 4.75396825 1.31442316 7.59571083 1.4375 10.4375 C1.47681641 11.43072266 1.51613281 12.42394531 1.55664062 13.44726562 C1.59853516 14.39150391 1.64042969 15.33574219 1.68359375 16.30859375 C1.72025146 17.18314209 1.75690918 18.05769043 1.79467773 18.95874023 C1.78181066 20.9927402 1.78181066 20.9927402 3 22 C3.66 21.34 4.32 20.68 5 20 C5.33 20.66 5.66 21.32 6 22 C7.85776765 18.86501708 8.20140476 16.62528568 8 13 C8.66 12.67 9.32 12.34 10 12 C11.01255033 15.03765099 11.12900588 17.11162221 11.1328125 20.2890625 C11.13474609 21.82433594 11.13474609 21.82433594 11.13671875 23.390625 C11.13285156 24.45796875 11.12898438 25.5253125 11.125 26.625 C11.12886719 27.70007813 11.13273437 28.77515625 11.13671875 29.8828125 C11.13542969 30.90375 11.13414062 31.9246875 11.1328125 32.9765625 C11.13168457 33.91580566 11.13055664 34.85504883 11.12939453 35.82275391 C11 38 11 38 10 39 C6.7 39 3.4 39 0 39 C0 26.13 0 13.26 0 0 Z " fill="#57426F" transform="translate(287,49)"/>
<path d="M0 0 C3.3 0.33 6.6 0.66 10 1 C11 5 11 5 10.28515625 7 C6.94755239 12.45959481 3.92335106 14.59050127 -2 17 C-2.33 16.34 -2.66 15.68 -3 15 C-2.34 15 -1.68 15 -1 15 C-1.185625 14.401875 -1.37125 13.80375 -1.5625 13.1875 C-2 11 -2 11 -1 8 C-1.66 7.67 -2.32 7.34 -3 7 C-2.690625 6.401875 -2.38125 5.80375 -2.0625 5.1875 C-0.89790296 2.91043228 -0.89790296 2.91043228 0 0 Z " fill="#644D81" transform="translate(233,72)"/>
<path d="M0 0 C1.22589844 0.01353516 1.22589844 0.01353516 2.4765625 0.02734375 C3.41628906 0.04474609 3.41628906 0.04474609 4.375 0.0625 C4.705 0.7225 5.035 1.3825 5.375 2.0625 C4.385 2.0625 3.395 2.0625 2.375 2.0625 C2.38660156 2.97773437 2.39820313 3.89296875 2.41015625 4.8359375 C2.41917969 6.02445313 2.42820313 7.21296875 2.4375 8.4375 C2.44910156 9.62085938 2.46070313 10.80421875 2.47265625 12.0234375 C2.375 15.0625 2.375 15.0625 1.375 17.0625 C0.715 17.0625 0.055 17.0625 -0.625 17.0625 C-0.625 17.7225 -0.625 18.3825 -0.625 19.0625 C-1.615 19.0625 -2.605 19.0625 -3.625 19.0625 C-7.44136773 13.33794841 -6.91782789 7.76500505 -6.625 1.0625 C-4.21954362 -0.14022819 -2.67503047 -0.03821472 0 0 Z " fill="#634B80" transform="translate(252.625,46.9375)"/>
<path d="M0 0 C0.66 0 1.32 0 2 0 C5.64735516 42.40050378 5.64735516 42.40050378 -2 57 C-2.33 57 -2.66 57 -3 57 C-3.125 54.125 -3.125 54.125 -3 51 C-2.34 50.34 -1.68 49.68 -1 49 C-0.66947545 46.81875409 -0.66947545 46.81875409 -0.68115234 44.27490234 C-0.66128265 43.29403656 -0.64141296 42.31317078 -0.62094116 41.30258179 C-0.60938995 40.24108917 -0.59783875 39.17959656 -0.5859375 38.0859375 C-0.56657135 37.00116119 -0.5472052 35.91638489 -0.5272522 34.79873657 C-0.46733574 31.32423841 -0.42102261 27.84970733 -0.375 24.375 C-0.33683135 22.02342282 -0.29778029 19.67185979 -0.2578125 17.3203125 C-0.16162441 11.5470003 -0.07661247 5.77360334 0 0 Z " fill="#7F7296" transform="translate(96,27)"/>
<path d="M0 0 C0.33 1.32 0.66 2.64 1 4 C2.65 4 4.3 4 6 4 C6 4.66 6 5.32 6 6 C8.97 6 11.94 6 15 6 C15.33 7.32 15.66 8.64 16 10 C16.66 10.33 17.32 10.66 18 11 C17.625 12.9375 17.625 12.9375 17 15 C14.27157939 16.36421031 12.39046682 15.87807211 9.375 15.5625 C8.37210938 15.46066406 7.36921875 15.35882813 6.3359375 15.25390625 C5.56507812 15.17011719 4.79421875 15.08632812 4 15 C4.66 14.67 5.32 14.34 6 14 C6 13.34 6 12.68 6 12 C4.68 11.67 3.36 11.34 2 11 C2.33 10.34 2.66 9.68 3 9 C2.60061233 6.90178785 2.60061233 6.90178785 2 5 C1.34 5 0.68 5 0 5 C0 3.35 0 1.7 0 0 Z " fill="#654E81" transform="translate(85,105)"/>
<path d="M0 0 C3.37462715 0.54723683 5.08235 1.0549 8 3 C8.328125 5.56640625 8.328125 5.56640625 8.25 8.5625 C8.23453125 9.55378906 8.2190625 10.54507813 8.203125 11.56640625 C8 14 8 14 7 15 C5.31391034 15.07205511 3.62499341 15.08386068 1.9375 15.0625 C1.01839844 15.05347656 0.09929687 15.04445313 -0.84765625 15.03515625 C-1.55792969 15.02355469 -2.26820313 15.01195313 -3 15 C-2.34 14.34 -1.68 13.68 -1 13 C-0.96745228 11.01458926 -0.94186051 9.02790551 -0.99609375 7.04296875 C-1.00076831 4.59817455 -0.59181137 2.36724546 0 0 Z " fill="#664D82" transform="translate(290,73)"/>
<path d="M0 0 C0.33 0 0.66 0 1 0 C1.03867188 0.97839844 1.03867188 0.97839844 1.078125 1.9765625 C1.46128741 7.88074693 2.24465072 11.39666863 6 16 C5.67 16.66 5.34 17.32 5 18 C-1.42857143 19.28571429 -1.42857143 19.28571429 -4 18 C-4.88671875 16.0390625 -4.88671875 16.0390625 -5.6875 13.625 C-6.09548828 12.43777344 -6.09548828 12.43777344 -6.51171875 11.2265625 C-7 9 -7 9 -6 6 C-2.9375 4.8125 -2.9375 4.8125 0 4 C0 2.68 0 1.36 0 0 Z " fill="#6A5186" transform="translate(175,62)"/>
<path d="M0 0 C2.70458547 0.07512737 4.4163612 0.44554314 6.40625 2.3359375 C10.42044176 7.12029396 11.52204019 9.73551774 11 16 C8.93638856 19.90612165 7.23910579 22.48603365 3 24 C3.33 22.68 3.66 21.36 4 20 C3.01 19.67 2.02 19.34 1 19 C0.67 17.35 0.34 15.7 0 14 C0.99 14 1.98 14 3 14 C3 14.66 3 15.32 3 16 C3.99 16 4.98 16 6 16 C6 15.34 6 14.68 6 14 C6.66 13.67 7.32 13.34 8 13 C8.33218192 9.99740483 8.33218192 9.99740483 6.5 8.3125 C6.005 7.879375 5.51 7.44625 5 7 C5.33 6.01 5.66 5.02 6 4 C4.68 4 3.36 4 2 4 C2 3.34 2 2.68 2 2 C1.01 1.67 0.02 1.34 -1 1 C-0.67 0.67 -0.34 0.34 0 0 Z " fill="#79648F" transform="translate(99,96)"/>
<path d="M0 0 C2.64 0 5.28 0 8 0 C8.8252404 3.30096158 9.37001429 5.8033 8 9 C4.42619658 10.19126781 2.49116698 9.7349445 -1.1875 9.0625 C-2.27417969 8.86785156 -3.36085938 8.67320313 -4.48046875 8.47265625 C-5.31191406 8.31667969 -6.14335937 8.16070312 -7 8 C-5.6875 5.5 -5.6875 5.5 -4 3 C-3.01 3 -2.02 3 -1 3 C-0.67 2.01 -0.34 1.02 0 0 Z " fill="#624B7E" transform="translate(342,47)"/>
<path d="M0 0 C0.83265381 0.04713135 1.66530762 0.0942627 2.52319336 0.14282227 C3.871875 0.21533203 3.871875 0.21533203 5.24780273 0.28930664 C6.19333008 0.34538086 7.13885742 0.40145508 8.11303711 0.45922852 C9.53712891 0.53753906 9.53712891 0.53753906 10.98999023 0.61743164 C13.34380663 0.74754209 15.6972441 0.88251963 18.05053711 1.02172852 C17.72053711 1.68172852 17.39053711 2.34172852 17.05053711 3.02172852 C10.78053711 3.02172852 4.51053711 3.02172852 -1.94946289 3.02172852 C-1.61946289 19.19172852 -1.28946289 35.36172852 -0.94946289 52.02172852 C1.03053711 52.35172852 3.01053711 52.68172852 5.05053711 53.02172852 C5.05053711 53.35172852 5.05053711 53.68172852 5.05053711 54.02172852 C2.41053711 54.02172852 -0.22946289 54.02172852 -2.94946289 54.02172852 C-2.97472937 46.49203199 -2.9922943 38.96234632 -3.00439453 31.43261719 C-3.00943659 28.86881095 -3.01627003 26.3050076 -3.02490234 23.74121094 C-3.03697353 20.0651783 -3.04269231 16.38918354 -3.04711914 12.71313477 C-3.05228043 11.55898575 -3.05744171 10.40483673 -3.0627594 9.2157135 C-3.06283493 8.15468918 -3.06291046 7.09366486 -3.06298828 6.00048828 C-3.06520889 5.06116959 -3.0674295 4.12185089 -3.06971741 3.15406799 C-2.91404599 0.39372007 -2.7792783 0.03097755 0 0 Z " fill="#56446E" transform="translate(122.949462890625,32.978271484375)"/>
<path d="M0 0 C-0.185625 0.7425 -0.37125 1.485 -0.5625 2.25 C-0.99203108 4.94990963 -0.85122974 6.44631077 0 9 C1.98 9 3.96 9 6 9 C6 9.33 6 9.66 6 10 C4.741875 10.28875 3.48375 10.5775 2.1875 10.875 C-0.8539399 11.57303539 -2.30669878 12.20446585 -5 14 C-5.66 12.02 -6.32 10.04 -7 8 C-7.99 8 -8.98 8 -10 8 C-10.99 9.485 -10.99 9.485 -12 11 C-12.66 11 -13.32 11 -14 11 C-13.43736042 7.49490749 -12.34814818 6.04731992 -9.625 3.8125 C-9.01914063 3.30332031 -8.41328125 2.79414062 -7.7890625 2.26953125 C-5.15546055 0.40070891 -3.21533272 0 0 0 Z " fill="#796690" transform="translate(182,47)"/>
<path d="M0 0 C1.4370809 -0.05422947 2.87475462 -0.09289723 4.3125 -0.125 C5.11300781 -0.14820313 5.91351563 -0.17140625 6.73828125 -0.1953125 C9 0 9 0 12 2 C11.67 2.99 11.34 3.98 11 5 C10.01 5.33 9.02 5.66 8 6 C7.67 6.99 7.34 7.98 7 9 C7.66 9.33 8.32 9.66 9 10 C6.03 9.67 3.06 9.34 0 9 C-1.125 6.75 -1.125 6.75 -2 4 C-1.0546875 1.828125 -1.0546875 1.828125 0 0 Z " fill="#644E80" transform="translate(182,47)"/>
<path d="M0 0 C3.60244452 0.30878096 4.99345998 0.99447732 7.8125 3.375 C10 6 10 6 10 9 C9.236875 8.79375 8.47375 8.5875 7.6875 8.375 C4.78114056 7.66608797 4.78114056 7.66608797 2 10 C2 10.66 2 11.32 2 12 C2.99 12 3.98 12 5 12 C5 13.98 5 15.96 5 18 C4.01 17.67 3.02 17.34 2 17 C0.9375 14.6875 0.9375 14.6875 0 12 C-0.65213539 10.65949948 -1.31379969 9.32338632 -2 8 C-1.34 8 -0.68 8 0 8 C0 5.36 0 2.72 0 0 Z " fill="#6E5686" transform="translate(350,48)"/>
<path d="M0 0 C0 1.32 0 2.64 0 4 C0.66 4.33 1.32 4.66 2 5 C2 5.66 2 6.32 2 7 C0.68 7 -0.64 7 -2 7 C-2.33 7.99 -2.66 8.98 -3 10 C-5.64 10 -8.28 10 -11 10 C-10.33333333 8 -9.66666667 6 -9 4 C-9.33 3.01 -9.66 2.02 -10 1 C-6.21812119 -0.83691257 -4.05431692 -1.15837626 0 0 Z " fill="#604A7D" transform="translate(313,47)"/>
<path d="M0 0 C2.66666667 2.66666667 5.33333333 5.33333333 8 8 C7.01 8 6.02 8 5 8 C5 8.66 5 9.32 5 10 C5.99 10.33 6.98 10.66 8 11 C7.67 12.65 7.34 14.3 7 16 C8.65 16.33 10.3 16.66 12 17 C12 17.33 12 17.66 12 18 C5.92671312 18.50610724 2.22771463 17.04157942 -3 14 C-3 13.01 -3 12.02 -3 11 C-2.01 10.67 -1.02 10.34 0 10 C1.68538601 8.00334686 1.68538601 8.00334686 3 6 C2.34 6 1.68 6 1 6 C1 5.34 1 4.68 1 4 C0.34 3.67 -0.32 3.34 -1 3 C-0.67 2.01 -0.34 1.02 0 0 Z " fill="#7F6B95" transform="translate(335,71)"/>
<path d="M0 0 C4.455 0.99 4.455 0.99 9 2 C9 2.66 9 3.32 9 4 C10.32 4.66 11.64 5.32 13 6 C12.67 7.32 12.34 8.64 12 10 C11.34 9.67 10.68 9.34 10 9 C9.46375 9.309375 8.9275 9.61875 8.375 9.9375 C4.86448461 11.50799373 1.82707839 11.12756928 -2 11 C-2 10.34 -2 9.68 -2 9 C-0.68 8.34 0.64 7.68 2 7 C1.67 6.401875 1.34 5.80375 1 5.1875 C0 3 0 3 0 0 Z " fill="#75638D" transform="translate(259,78)"/>
<path d="M0 0 C2 3 2 3 3 6 C2.22265625 8.48046875 2.22265625 8.48046875 1.0625 11.1875 C0.68222656 12.08855469 0.30195313 12.98960938 -0.08984375 13.91796875 C-0.39019531 14.60503906 -0.69054687 15.29210937 -1 16 C-4.35478456 12.91006686 -6.79241806 10.46805317 -8 6 C-7.67 5.34 -7.34 4.68 -7 4 C-3.9375 3.375 -3.9375 3.375 -1 3 C-0.67 2.01 -0.34 1.02 0 0 Z " fill="#776290" transform="translate(23,78)"/>
<path d="M0 0 C1.32 0.66 2.64 1.32 4 2 C4 3.32 4 4.64 4 6 C3.34 6 2.68 6 2 6 C1.34 9.3 0.68 12.6 0 16 C-0.66 16 -1.32 16 -2 16 C-2.2475 15.05125 -2.495 14.1025 -2.75 13.125 C-3.67274377 9.96244601 -3.67274377 9.96244601 -5.875 8.75 C-6.57625 8.5025 -7.2775 8.255 -8 8 C-9.33333333 7.33333333 -10.66666667 6.66666667 -12 6 C-9.98177083 6.09765625 -7.96354167 6.1953125 -5.9453125 6.29296875 C-5.30335938 6.19628906 -4.66140625 6.09960938 -4 6 C-3.34 5.01 -2.68 4.02 -2 3 C-1.34 3 -0.68 3 0 3 C0 2.01 0 1.02 0 0 Z " fill="#77638D" transform="translate(153,39)"/>
<path d="M0 0 C0.66 0.33 1.32 0.66 2 1 C2 1.99 2 2.98 2 4 C2.66 2.68 3.32 1.36 4 0 C4.66 0 5.32 0 6 0 C5.814375 0.763125 5.62875 1.52625 5.4375 2.3125 C4.77180827 5.08967375 4.77180827 5.08967375 6 8 C6.66 8 7.32 8 8 8 C7.125 11.875 7.125 11.875 6 13 C4.33985384 13.36442233 2.67293936 13.69972883 1 14 C-2.68024726 5.62067997 -2.68024726 5.62067997 -1 1 C-0.67 0.67 -0.34 0.34 0 0 Z " fill="#644C7F" transform="translate(330,69)"/>
<path d="M0 0 C11.71811669 -0.10902914 23.3222103 -0.09908609 35 1 C31.56849142 3.28767239 30.26798333 3.25682799 26.23046875 3.265625 C24.52600586 3.26949219 24.52600586 3.26949219 22.78710938 3.2734375 C21.59923828 3.26570313 20.41136719 3.25796875 19.1875 3.25 C17.4230957 3.26160156 17.4230957 3.26160156 15.62304688 3.2734375 C14.48287109 3.27085938 13.34269531 3.26828125 12.16796875 3.265625 C11.12922607 3.26336914 10.0904834 3.26111328 9.02026367 3.25878906 C5.75520483 2.97902491 3.05822079 2.15029539 0 1 C0 0.67 0 0.34 0 0 Z " fill="#513E65" transform="translate(34,92)"/>
<path d="M0 0 C0.33 0 0.66 0 1 0 C1 12.21 1 24.42 1 37 C-3.455 37.495 -3.455 37.495 -8 38 C-8 36.68 -8 35.36 -8 34 C-9.65 33.34 -11.3 32.68 -13 32 C-13 31.67 -13 31.34 -13 31 C-14.65 30.67 -16.3 30.34 -18 30 C-18 29.67 -18 29.34 -18 29 C-15.36 28.34 -12.72 27.68 -10 27 C-8.92474806 29.65228812 -7.90543849 32.28368454 -7 35 C-4.69 35.33 -2.38 35.66 0 36 C0 24.12 0 12.24 0 0 Z " fill="#55426B" transform="translate(280,50)"/>
<path d="M0 0 C4.44044513 1.35680268 6.45164515 3.13353058 9 7 C10.25 10.3125 10.25 10.3125 11 13 C7.17679443 14.42258812 4.08718695 15.24042276 0 15 C0.33 14.34 0.66 13.68 1 13 C1.99 13.33 2.98 13.66 4 14 C4 13.01 4 12.02 4 11 C4.66 10.34 5.32 9.68 6 9 C4.68798827 7.43750191 4.68798827 7.43750191 3 6 C2.01 6 1.02 6 0 6 C0 4.02 0 2.04 0 0 Z " fill="#7C6990" transform="translate(233,48)"/>
<path d="M0 0 C3.3 0.33 6.6 0.66 10 1 C10.6875 3.75 10.6875 3.75 11 7 C9.5625 9.375 9.5625 9.375 8 11 C5.03 10.505 5.03 10.505 2 10 C2.20625 9.38125 2.4125 8.7625 2.625 8.125 C2.74875 7.42375 2.8725 6.7225 3 6 C2.34 5.34 1.68 4.68 1 4 C0.67 2.68 0.34 1.36 0 0 Z " fill="#614B7C" transform="translate(339,78)"/>
<path d="M0 0 C0.66 0 1.32 0 2 0 C2.33 1.32 2.66 2.64 3 4 C4.32 4.33 5.64 4.66 7 5 C6.67 7.64 6.34 10.28 6 13 C5.01 12.67 4.02 12.34 3 12 C3 11.34 3 10.68 3 10 C0.69 9.34 -1.62 8.68 -4 8 C-4.33 6.35 -4.66 4.7 -5 3 C-4.34 3 -3.68 3 -3 3 C-3 3.66 -3 4.32 -3 5 C-0.7763932 3.0745356 -0.7763932 3.0745356 0 0 Z " fill="#5E477A" transform="translate(210,60)"/>
<path d="M0 0 C7.30593607 -0.3652968 7.30593607 -0.3652968 10.375 1.25 C12.06787087 3.07309171 12.92341764 4.77506312 14 7 C14.99 7.66 15.98 8.32 17 9 C11.48918584 9.55108142 7.48325697 8.09770294 3 5 C1 2.25 1 2.25 0 0 Z " fill="#75608B" transform="translate(57,118)"/>
<path d="M0 0 C1.65 0.33 3.3 0.66 5 1 C4.46252091 5.56857227 2.93335989 8.46492526 0 12 C-2.56695592 13.59514469 -5.20879606 14.84828964 -8 16 C-8.33 15.34 -8.66 14.68 -9 14 C-8.34 14 -7.68 14 -7 14 C-7 13.34 -7 12.68 -7 12 C-6.01 12 -5.02 12 -4 12 C-3.87625 11.4225 -3.7525 10.845 -3.625 10.25 C-2.99351176 7.97664233 -2.11141809 6.0746471 -1 4 C-0.34 4 0.32 4 1 4 C1.33 3.34 1.66 2.68 2 2 C1.34 1.34 0.68 0.68 0 0 Z " fill="#857498" transform="translate(239,73)"/>
<path d="M0 0 C2.91061051 1.06722385 3.82859029 1.63913745 5.1875 4.5 C5.455625 5.325 5.72375 6.15 6 7 C6.33 7.66 6.66 8.32 7 9 C2.545 9.495 2.545 9.495 -2 10 C-2.99 8.02 -3.98 6.04 -5 4 C-3.35 3.67 -1.7 3.34 0 3 C0 2.01 0 1.02 0 0 Z " fill="#6A5385" transform="translate(256,78)"/>
<path d="M0 0 C0.99 0.33 1.98 0.66 3 1 C3 1.99 3 2.98 3 4 C3.66 4 4.32 4 5 4 C5 4.66 5 5.32 5 6 C5.99 5.34 6.98 4.68 8 4 C8.99 4.33 9.98 4.66 11 5 C10.34 6.32 9.68 7.64 9 9 C7.63875 8.690625 7.63875 8.690625 6.25 8.375 C2.88972103 7.9872755 1.75924185 8.19588033 -1 10 C-1.28875 9.21625 -1.5775 8.4325 -1.875 7.625 C-2.84912254 4.90328368 -2.84912254 4.90328368 -5 3 C-2.6875 1.4375 -2.6875 1.4375 0 0 Z M-1 2 C-1 2.99 -1 3.98 -1 5 C-0.34 4.34 0.32 3.68 1 3 C0.34 2.67 -0.32 2.34 -1 2 Z " fill="#76618E" transform="translate(148,72)"/>
<path d="M0 0 C0.66 0 1.32 0 2 0 C4.08387478 18.9037212 4.08387478 18.9037212 2 28 C1.34 27.67 0.68 27.34 0 27 C0 18.09 0 9.18 0 0 Z " fill="#5E3779" transform="translate(128,47)"/>
<path d="M0 0 C0.66 0.33 1.32 0.66 2 1 C2 3.31 2 5.62 2 8 C2.77085938 7.96519531 3.54171875 7.93039063 4.3359375 7.89453125 C5.33882812 7.86746094 6.34171875 7.84039062 7.375 7.8125 C8.87160156 7.76029297 8.87160156 7.76029297 10.3984375 7.70703125 C11.25695312 7.80371094 12.11546875 7.90039062 13 8 C13.99 9.485 13.99 9.485 15 11 C13.06257659 11.02703381 11.12504521 11.04641125 9.1875 11.0625 C8.10855469 11.07410156 7.02960938 11.08570313 5.91796875 11.09765625 C3 11 3 11 0 10 C0.33 7.36 0.66 4.72 1 2 C-1.64 2 -4.28 2 -7 2 C-7 3.98 -7 5.96 -7 8 C-7.33 8 -7.66 8 -8 8 C-8 5.69 -8 3.38 -8 1 C-4.92477747 -0.86709939 -3.39885889 -1.24624826 0 0 Z " fill="#837296" transform="translate(75,9)"/>
<path d="M0 0 C2.375 0.6875 2.375 0.6875 5 2 C6.3125 4.625 6.3125 4.625 7 7 C4.68796073 9.31203927 4.06785625 9.27275091 0.9375 9.5 C-0.361875 9.665 -1.66125 9.83 -3 10 C-3.33 10.66 -3.66 11.32 -4 12 C-4 11.34 -4 10.68 -4 10 C-4.66 9.67 -5.32 9.34 -6 9 C-5.01 8.67 -4.02 8.34 -3 8 C-2.67 7.34 -2.34 6.68 -2 6 C-1.01 5.34 -0.02 4.68 1 4 C0.67 2.68 0.34 1.36 0 0 Z " fill="#725E89" transform="translate(313,48)"/>
<path d="M0 0 C0 3 0 3 -1 5 C0.4540625 5.4021875 0.4540625 5.4021875 1.9375 5.8125 C2.948125 6.204375 3.95875 6.59625 5 7 C5.33 7.99 5.66 8.98 6 10 C4.02 10.99 4.02 10.99 2 12 C-0.03833424 10.7260411 -2.03852126 9.38938077 -4 8 C-4 7.34 -4 6.68 -4 6 C-4.66 5.67 -5.32 5.34 -6 5 C-5.38125 4.9175 -4.7625 4.835 -4.125 4.75 C-1.81562433 4.18741541 -1.81562433 4.18741541 -0.75 1.9375 C-0.5025 1.298125 -0.255 0.65875 0 0 Z " fill="#7F6A94" transform="translate(80,84)"/>
<path d="M0 0 C0.66 0.33 1.32 0.66 2 1 C2.625 4.0625 2.625 4.0625 3 7 C-0.3 7 -3.6 7 -7 7 C-7 8.65 -7 10.3 -7 12 C-7.66 12 -8.32 12 -9 12 C-9.33 13.32 -9.66 14.64 -10 16 C-10 13.69 -10 11.38 -10 9 C-9.34 9 -8.68 9 -8 9 C-8 7.68 -8 6.36 -8 5 C-5.36 4.67 -2.72 4.34 0 4 C0 2.68 0 1.36 0 0 Z " fill="#675789" transform="translate(47,48)"/>
<path d="M0 0 C0.84454356 3.37817425 1.10844919 5.67465243 0 9 C-1.98 8.34 -3.96 7.68 -6 7 C-6.33 5.35 -6.66 3.7 -7 2 C-4.35261084 0.5393715 -3.10551666 0 0 0 Z " fill="#685085" transform="translate(350,47)"/>
<path d="M0 0 C3.14737182 0.69941596 6.02588876 1.76078698 9 3 C7 4 7 4 3 4 C3 5.32 3 6.64 3 8 C0.69 7.67 -1.62 7.34 -4 7 C-4.33 6.01 -4.66 5.02 -5 4 C-4.360625 3.71125 -3.72125 3.4225 -3.0625 3.125 C-0.84793921 2.17176549 -0.84793921 2.17176549 0 0 Z " fill="#725C89" transform="translate(92,103)"/>
<path d="M0 0 C0.66 0.66 1.32 1.32 2 2 C1.67 2.66 1.34 3.32 1 4 C2.89179203 4.6814823 2.89179203 4.6814823 5 5 C5.66 4.34 6.32 3.68 7 3 C7 4.98 7 6.96 7 9 C5.02 9.66 3.04 10.32 1 11 C1 10.34 1 9.68 1 9 C0.34 9 -0.32 9 -1 9 C-0.67 6.03 -0.34 3.06 0 0 Z " fill="#644C80" transform="translate(152,67)"/>
<path d="M0 0 C2 1 2 1 2.6328125 2.84765625 C2.79523438 3.57855469 2.95765625 4.30945312 3.125 5.0625 C3.29257813 5.79597656 3.46015625 6.52945313 3.6328125 7.28515625 C3.75398438 7.85105469 3.87515625 8.41695312 4 9 C3.34 9 2.68 9 2 9 C2 10.65 2 12.3 2 14 C-0.31 13.34 -2.62 12.68 -5 12 C-3.68 9.36 -2.36 6.72 -1 4 C-0.34 4 0.32 4 1 4 C0.67 2.68 0.34 1.36 0 0 Z M-1 9 C-1 9.99 -1 10.98 -1 12 C-0.34 12 0.32 12 1 12 C1 11.01 1 10.02 1 9 C0.34 9 -0.32 9 -1 9 Z " fill="#715E87" transform="translate(70,53)"/>
<path d="M0 0 C-0.35049575 3.24208567 -0.56221181 4.61527704 -3.0625 6.8125 C-3.701875 7.204375 -4.34125 7.59625 -5 8 C-5 7.34 -5 6.68 -5 6 C-7.97 6 -10.94 6 -14 6 C-14 5.34 -14 4.68 -14 4 C-11.69 4.33 -9.38 4.66 -7 5 C-7 3.68 -7 2.36 -7 1 C-2.25 0 -2.25 0 0 0 Z " fill="#614B7B" transform="translate(153,39)"/>
<path d="M0 0 C0.598125 0.350625 1.19625 0.70125 1.8125 1.0625 C1.4825 2.3825 1.1525 3.7025 0.8125 5.0625 C0.1525 5.0625 -0.5075 5.0625 -1.1875 5.0625 C-1.1875 5.7225 -1.1875 6.3825 -1.1875 7.0625 C-2.1775 7.0625 -3.1675 7.0625 -4.1875 7.0625 C-5.25 4.6875 -5.25 4.6875 -6.1875 2.0625 C-4.66896708 -0.97456585 -3.05066334 -1.30742714 0 0 Z " fill="#634C80" transform="translate(106.1875,104.9375)"/>
<path d="M0 0 C0.66 0.33 1.32 0.66 2 1 C2.02687279 2.81242052 2.04633715 4.62495233 2.0625 6.4375 C2.07410156 7.44683594 2.08570313 8.45617187 2.09765625 9.49609375 C2 12 2 12 1 13 C-0.68608966 13.07205511 -2.37500659 13.08386068 -4.0625 13.0625 C-4.98160156 13.05347656 -5.90070313 13.04445313 -6.84765625 13.03515625 C-7.55792969 13.02355469 -8.26820313 13.01195313 -9 13 C-9 12.67 -9 12.34 -9 12 C-6.03 12 -3.06 12 0 12 C0 10.68 0 9.36 0 8 C-0.66 7.67 -1.32 7.34 -2 7 C-1.34 4.69 -0.68 2.38 0 0 Z " fill="#715F89" transform="translate(296,75)"/>
<path d="M0 0 C0.99 0.33 1.98 0.66 3 1 C3.33 3.31 3.66 5.62 4 8 C3.01 7.34 2.02 6.68 1 6 C0.34 6.66 -0.32 7.32 -1 8 C-3.125 7.625 -3.125 7.625 -5 7 C-5 6.34 -5 5.68 -5 5 C-4.34 5 -3.68 5 -3 5 C-2.5359375 4.0409375 -2.5359375 4.0409375 -2.0625 3.0625 C-1 1 -1 1 0 0 Z " fill="#634C7D" transform="translate(173,53)"/>
<path d="M0 0 C0.33 0.66 0.66 1.32 1 2 C1.99 2.33 2.98 2.66 4 3 C3.67 3.66 3.34 4.32 3 5 C3.66 5.66 4.32 6.32 5 7 C4.67 7.99 4.34 8.98 4 10 C1.69 9.67 -0.62 9.34 -3 9 C-2.34 8.67 -1.68 8.34 -1 8 C-1.33 6.02 -1.66 4.04 -2 2 C-1.34 2 -0.68 2 0 2 C0 1.34 0 0.68 0 0 Z " fill="#614B7B" transform="translate(72,117)"/>
<path d="M0 0 C3.14737182 0.69941596 6.02588876 1.76078698 9 3 C8.34 4.65 7.68 6.3 7 8 C6.34 7.67 5.68 7.34 5 7 C4.01 6.67 3.02 6.34 2 6 C0.3125 4.4375 0.3125 4.4375 -1 3 C-0.67 2.01 -0.34 1.02 0 0 Z " fill="#6A5584" transform="translate(63,114)"/>
<path d="M0 0 C0.928125 0.433125 1.85625 0.86625 2.8125 1.3125 C3.1425 2.3025 3.4725 3.2925 3.8125 4.3125 C3.02875 4.250625 2.245 4.18875 1.4375 4.125 C0.138125 4.2178125 0.138125 4.2178125 -1.1875 4.3125 C-2.1775 5.7975 -2.1775 5.7975 -3.1875 7.3125 C-3.1875 6.3225 -3.1875 5.3325 -3.1875 4.3125 C-4.1775 4.3125 -5.1675 4.3125 -6.1875 4.3125 C-6.5175 3.3225 -6.8475 2.3325 -7.1875 1.3125 C-4.38629123 -0.62679838 -3.41465603 -0.73649444 0 0 Z " fill="#654F7F" transform="translate(358.1875,55.6875)"/>
<path d="M0 0 C-0.33 1.32 -0.66 2.64 -1 4 C-1.37125 3.505 -1.7425 3.01 -2.125 2.5 C-3.98842933 0.74235513 -3.98842933 0.74235513 -6.9375 0.625 C-10.24984673 1.03059348 -11.58330297 1.76920274 -14 4 C-14 2.68 -14 1.36 -14 0 C-8.71534278 -3.52310482 -5.16073843 -3.79466061 0 0 Z " fill="#7F6E92" transform="translate(233,57)"/>
<path d="M0 0 C0.5625 1.875 0.5625 1.875 1 4 C1.33 4.99 1.66 5.98 2 7 C2.66 7.33 3.32 7.66 4 8 C3.34 8 2.68 8 2 8 C1.67 8.66 1.34 9.32 1 10 C1 8.68 1 7.36 1 6 C-1.475 5.01 -1.475 5.01 -4 4 C-4 3.67 -4 3.34 -4 3 C-5.65 2.67 -7.3 2.34 -9 2 C-9 1.67 -9 1.34 -9 1 C-2.25 -1.125 -2.25 -1.125 0 0 Z " fill="#5E4975" transform="translate(271,78)"/>
<path d="M0 0 C0.33 0.66 0.66 1.32 1 2 C-3.95 2 -8.9 2 -14 2 C-14 1.34 -14 0.68 -14 0 C-9.05118487 -0.90896604 -4.93467213 -1.08562787 0 0 Z " fill="#604E77" transform="translate(50,100)"/>
<path d="M0 0 C1 3 1 3 1 5 C1.99 5.33 2.98 5.66 4 6 C3.67 7.32 3.34 8.64 3 10 C1 9 1 9 -2 7 C-2.66 6.67 -3.32 6.34 -4 6 C-2.25 1.125 -2.25 1.125 0 0 Z " fill="#624C7B" transform="translate(83,83)"/>
<path d="M0 0 C0.33 0.66 0.66 1.32 1 2 C1.66 2.33 2.32 2.66 3 3 C2.67 3.99 2.34 4.98 2 6 C2.99 6 3.98 6 5 6 C5 7.98 5 9.96 5 12 C4.01 11.67 3.02 11.34 2 11 C0.9375 8.6875 0.9375 8.6875 0 6 C-0.65213539 4.65949948 -1.31379969 3.32338632 -2 2 C-1.34 2 -0.68 2 0 2 C0 1.34 0 0.68 0 0 Z " fill="#7C6991" transform="translate(350,54)"/>
<path d="M0 0 C0 0.99 0 1.98 0 3 C-1.32 3.33 -2.64 3.66 -4 4 C-4 4.66 -4 5.32 -4 6 C-4.99 6 -5.98 6 -7 6 C-7 6.66 -7 7.32 -7 8 C-5.02 8.495 -5.02 8.495 -3 9 C-4.32 9.33 -5.64 9.66 -7 10 C-7.33 8.35 -7.66 6.7 -8 5 C-6.68 4.34 -5.36 3.68 -4 3 C-4 2.34 -4 1.68 -4 1 C-2 0 -2 0 0 0 Z " fill="#81729A" transform="translate(94,96)"/>
<path d="M0 0 C-1.24976756 3.65316671 -1.67098753 4.78065836 -5 7 C-5.99 5.68 -6.98 4.36 -8 3 C-4.93882432 0.37613513 -4.26826873 0 0 0 Z " fill="#806F93" transform="translate(202,78)"/>
<path d="M0 0 C2.35119399 3.52679099 2.21443452 5.02879485 2.125 9.1875 C2.10695313 10.27417969 2.08890625 11.36085938 2.0703125 12.48046875 C2.03550781 13.72763672 2.03550781 13.72763672 2 15 C1.01 14.34 0.02 13.68 -1 13 C-1.328125 10.21484375 -1.328125 10.21484375 -1.25 6.9375 C-1.23453125 5.85339844 -1.2190625 4.76929687 -1.203125 3.65234375 C-1 1 -1 1 0 0 Z " fill="#533D68" transform="translate(296,61)"/>
<path d="M0 0 C0.66 1.65 1.32 3.3 2 5 C-1.3 4.34 -4.6 3.68 -8 3 C-8 2.34 -8 1.68 -8 1 C-5.29120665 -0.35439668 -2.99066732 -0.06501451 0 0 Z " fill="#5E4E72" transform="translate(69,52)"/>
<path d="M0 0 C1.7290774 -0.02725341 3.45828176 -0.04650987 5.1875 -0.0625 C6.15042969 -0.07410156 7.11335937 -0.08570312 8.10546875 -0.09765625 C10.85576513 -0.00486622 13.32479591 0.37888315 16 1 C16 1.66 16 2.32 16 3 C10.22192976 3.2358396 5.48675196 2.86783046 0 1 C0 0.67 0 0.34 0 0 Z " fill="#726089" transform="translate(122,85)"/>
<path d="M0 0 C1.98 0.66 3.96 1.32 6 2 C5.67 3.32 5.34 4.64 5 6 C4.34 5.67 3.68 5.34 3 5 C0.90178785 5.39938767 0.90178785 5.39938767 -1 6 C-1.042721 4.33388095 -1.04063832 2.66617115 -1 1 C-0.67 0.67 -0.34 0.34 0 0 Z " fill="#88769F" transform="translate(266,82)"/>
<path d="M0 0 C0.99 0.33 1.98 0.66 3 1 C5.14255793 0.61067144 5.14255793 0.61067144 7 0 C5.8125 2.4375 5.8125 2.4375 4 5 C1.3125 5.8125 1.3125 5.8125 -1 6 C-0.67 5.34 -0.34 4.68 0 4 C-0.33 3.01 -0.66 2.02 -1 1 C-0.67 0.67 -0.34 0.34 0 0 Z " fill="#674E82" transform="translate(217,78)"/>
<path d="M0 0 C0.33 0 0.66 0 1 0 C1.22134176 2.12368444 1.42670007 4.24904024 1.625 6.375 C1.74101562 7.55835937 1.85703125 8.74171875 1.9765625 9.9609375 C1.98429688 10.96382812 1.99203125 11.96671875 2 13 C1.34 13.66 0.68 14.32 0 15 C-1.62077189 9.38963576 -2.55579195 5.53754923 0 0 Z " fill="#5C4973" transform="translate(175,62)"/>
<path d="M0 0 C0.99 0.33 1.98 0.66 3 1 C4.1875 3.5625 4.1875 3.5625 5 6 C4.34 6.66 3.68 7.32 3 8 C3 9.32 3 10.64 3 12 C2.34 12 1.68 12 1 12 C0.67 8.04 0.34 4.08 0 0 Z " fill="#78678C" transform="translate(200,56)"/>
<path d="M0 0 C0.33 1.65 0.66 3.3 1 5 C-2.37503669 3.8141763 -4.64722731 2.72426311 -7 0 C-4.3333581 -1.33332095 -2.83319697 -0.67102033 0 0 Z " fill="#706284" transform="translate(42,9)"/>
<path d="M0 0 C2.475 0.495 2.475 0.495 5 1 C4.50168276 4.68754757 3.89932357 6.60490662 1 9 C0.375 7.1875 0.375 7.1875 0 5 C0.66 4.01 1.32 3.02 2 2 C1.34 1.34 0.68 0.68 0 0 Z " fill="#9E85AD" transform="translate(239,73)"/>
<path d="M0 0 C1.31065245 2.62130489 1.415469 4.09171697 1 7 C-1.5 9.3125 -1.5 9.3125 -4 11 C-4.33 10.34 -4.66 9.68 -5 9 C-4.319375 8.1646875 -4.319375 8.1646875 -3.625 7.3125 C-1.96266232 4.94686561 -0.97855457 2.70984342 0 0 Z " fill="#9182A4" transform="translate(87,73)"/>
<path d="M0 0 C-1 3 -1 3 -3.0625 4.1875 C-3.701875 4.455625 -4.34125 4.72375 -5 5 C-5 4.01 -5 3.02 -5 2 C-7.31 2 -9.62 2 -12 2 C-12 1.67 -12 1.34 -12 1 C-10.37681021 0.63762737 -8.7513642 0.28534843 -7.125 -0.0625 C-6.22007813 -0.25972656 -5.31515625 -0.45695312 -4.3828125 -0.66015625 C-2 -1 -2 -1 0 0 Z " fill="#9687A7" transform="translate(74,91)"/>
<path d="M0 0 C2.31 0 4.62 0 7 0 C7 0.66 7 1.32 7 2 C4.1875 3.5625 4.1875 3.5625 1 5 C0.01 4.67 -0.98 4.34 -2 4 C-2 3.34 -2 2.68 -2 2 C-1.34 2 -0.68 2 0 2 C0 1.34 0 0.68 0 0 Z " fill="#827198" transform="translate(350,83)"/>
<path d="M0 0 C1.22589844 0.01353516 1.22589844 0.01353516 2.4765625 0.02734375 C3.41628906 0.04474609 3.41628906 0.04474609 4.375 0.0625 C4.705 0.7225 5.035 1.3825 5.375 2.0625 C3.065 2.0625 0.755 2.0625 -1.625 2.0625 C-1.955 3.0525 -2.285 4.0425 -2.625 5.0625 C-3.945 3.7425 -5.265 2.4225 -6.625 1.0625 C-4.21954362 -0.14022819 -2.67503047 -0.03821472 0 0 Z " fill="#786A8A" transform="translate(252.625,46.9375)"/>
<path d="M0 0 C2.66666667 2.66666667 5.33333333 5.33333333 8 8 C6.35 8.33 4.7 8.66 3 9 C3 8.01 3 7.02 3 6 C2.34 6 1.68 6 1 6 C1 5.34 1 4.68 1 4 C0.34 3.67 -0.32 3.34 -1 3 C-0.67 2.01 -0.34 1.02 0 0 Z " fill="#9378A4" transform="translate(335,71)"/>
<path d="M0 0 C1.65 0 3.3 0 5 0 C4.01 0.495 4.01 0.495 3 1 C3 2.32 3 3.64 3 5 C1.02 5.33 -0.96 5.66 -3 6 C-2.01 4.02 -1.02 2.04 0 0 Z " fill="#897B9E" transform="translate(233,72)"/>
<path d="M0 0 C0.99 0.33 1.98 0.66 3 1 C3 3.31 3 5.62 3 8 C2.01 7.67 1.02 7.34 0 7 C0 4.69 0 2.38 0 0 Z " fill="#7E6F8C" transform="translate(47,68)"/>
<path d="M0 0 C2.1519437 3.22791555 2.20086443 4.28400809 2 8 C-1 9 -1 9 -3.1875 8.0625 C-3.785625 7.711875 -4.38375 7.36125 -5 7 C-4.360625 6.5875 -3.72125 6.175 -3.0625 5.75 C-0.79009069 3.82189513 -0.39803561 2.88575819 0 0 Z " fill="#5A4770" transform="translate(68,11)"/>
<path d="M0 0 C1.32 0.33 2.64 0.66 4 1 C4.33 3.31 4.66 5.62 5 8 C2.20127563 5.47211993 0.54226981 3.79588866 0 0 Z " fill="#847297" transform="translate(326,75)"/>
<path d="M0 0 C2.1640625 0.0234375 2.1640625 0.0234375 4.625 0.375 C5.85089844 0.54128906 5.85089844 0.54128906 7.1015625 0.7109375 C7.72804688 0.80632812 8.35453125 0.90171875 9 1 C9 1.66 9 2.32 9 3 C5.37 2.67 1.74 2.34 -2 2 C-1.34 1.34 -0.68 0.68 0 0 Z " fill="#6A567E" transform="translate(91,118)"/>
<path d="M0 0 C2 3 2 3 1.625 5.6875 C1.41875 6.450625 1.2125 7.21375 1 8 C0.01 8 -0.98 8 -2 8 C-1.125 1.125 -1.125 1.125 0 0 Z " fill="#8E7CA4" transform="translate(209,57)"/>
<path d="M0 0 C2.97 0.99 5.94 1.98 9 3 C9 3.99 9 4.98 9 6 C7.68 5.67 6.36 5.34 5 5 C5 4.34 5 3.68 5 3 C4.360625 2.87625 3.72125 2.7525 3.0625 2.625 C2.381875 2.41875 1.70125 2.2125 1 2 C0.67 1.34 0.34 0.68 0 0 Z " fill="#9888A5" transform="translate(22,94)"/>
<path d="M0 0 C1.9375 0.3125 1.9375 0.3125 4 1 C4.33 1.99 4.66 2.98 5 4 C3.02 4.99 3.02 4.99 1 6 C0 3 0 3 0 0 Z " fill="#765D8D" transform="translate(81,90)"/>
<path d="M0 0 C2 2 2 2 3 5 C1.02 5.99 1.02 5.99 -1 7 C-1.625 5.1875 -1.625 5.1875 -2 3 C-1.34 2.01 -0.68 1.02 0 0 Z " fill="#60497C" transform="translate(194,54)"/>
<path d="M0 0 C3.68754757 0.49831724 5.60490662 1.10067643 8 4 C6.68 4.33 5.36 4.66 4 5 C3.67 4.34 3.34 3.68 3 3 C2.01 2.67 1.02 2.34 0 2 C0 1.34 0 0.68 0 0 Z " fill="#7F6C91" transform="translate(350,48)"/>
<path d="M0 0 C1.98 0.99 1.98 0.99 4 2 C3.67 3.98 3.34 5.96 3 8 C2.34 7.67 1.68 7.34 1 7 C0.59270772 4.67843403 0.25561323 2.3431213 0 0 Z " fill="#9888AB" transform="translate(50,105)"/>
<path d="M0 0 C0.66 0.99 1.32 1.98 2 3 C4.56282742 3.72965366 4.56282742 3.72965366 7 4 C7 4.33 7 4.66 7 5 C0.375 5.25 0.375 5.25 -3 3 C-2.01 2.01 -1.02 1.02 0 0 Z " fill="#A392B6" transform="translate(222,84)"/>
<path d="M0 0 C2.31 0 4.62 0 7 0 C7.33 1.32 7.66 2.64 8 4 C4.31245243 3.50168276 2.39509338 2.89932357 0 0 Z " fill="#837395" transform="translate(173,84)"/>
<path d="M0 0 C0.33 1.32 0.66 2.64 1 4 C1.66 3.34 2.32 2.68 3 2 C3.33 2.99 3.66 3.98 4 5 C2.35 5.66 0.7 6.32 -1 7 C-0.67 4.69 -0.34 2.38 0 0 Z " fill="#7D6A92" transform="translate(326,58)"/>
<path d="M0 0 C1.485 0.99 1.485 0.99 3 2 C3.375 4.5 3.375 4.5 3 7 C2.01 7.66 1.02 8.32 0 9 C0 6.03 0 3.06 0 0 Z " fill="#62418C" transform="translate(310,58)"/>
<path d="M0 0 C0.66 0.33 1.32 0.66 2 1 C1.67 2.98 1.34 4.96 1 7 C0.34 7 -0.32 7 -1 7 C-1.33 8.32 -1.66 9.64 -2 11 C-2 8.69 -2 6.38 -2 4 C-1.34 4 -0.68 4 0 4 C0 2.68 0 1.36 0 0 Z " fill="#80788C" transform="translate(39,53)"/>
<path d="M0 0 C2.4375 0.25 2.4375 0.25 5 1 C5.66 1.99 6.32 2.98 7 4 C5.35 4 3.7 4 2 4 C2 3.34 2 2.68 2 2 C1.01 1.67 0.02 1.34 -1 1 C-0.67 0.67 -0.34 0.34 0 0 Z " fill="#7F6B92" transform="translate(99,96)"/>
<path d="M0 0 C1.32 0.33 2.64 0.66 4 1 C4.33 2.65 4.66 4.3 5 6 C3.0625 5.25 3.0625 5.25 1 4 C0.25 1.875 0.25 1.875 0 0 Z " fill="#87729A" transform="translate(248,80)"/>
<path d="M0 0 C0.95465783 2.16967689 1.14401212 3.56328793 0.3984375 5.82421875 C-0.35870385 7.5684743 -1.17609198 9.28627131 -2 11 C-2.33 11 -2.66 11 -3 11 C-3.32613618 6.32538149 -2.70582788 3.83325617 0 0 Z " fill="#90809D" transform="translate(96,73)"/>
<path d="M0 0 C2.97 0 5.94 0 9 0 C9 0.33 9 0.66 9 1 C6.98177083 1.45572917 4.96354167 1.91145833 2.9453125 2.3671875 C0.79280036 2.90474428 0.79280036 2.90474428 -1 5 C-0.67 3.35 -0.34 1.7 0 0 Z " fill="#A89AB7" transform="translate(338,56)"/>
<path d="" fill="#000000" transform="translate(0,0)"/>
</svg>
